<svg width="16" height="16" viewBox="0 0 16 16" fill="none" xmlns="http://www.w3.org/2000/svg">
<path d="M12.3834 6.53892L13.8445 5.07785C14.1842 4.73815 14.3541 4.56831 14.456 4.39162C14.9691 3.50305 14.4599 2.77102 13.8445 2.15568C13.2291 1.54024 12.4972 1.03111 11.6085 1.54413C11.4318 1.64615 11.262 1.81599 10.9223 2.15568L9.46124 3.61676C8.77249 4.30552 8.42816 4.64991 8.00016 4.64991C7.57216 4.64991 7.22783 4.30552 6.53908 3.61676L5.078 2.15568C4.7383 1.81599 4.56846 1.64615 4.39177 1.54413C3.50314 1.03108 2.77124 1.54028 2.15584 2.15568C1.54044 2.77109 1.03124 3.50299 1.54429 4.39162C1.6463 4.56831 1.81614 4.73815 2.15584 5.07785L3.61691 6.53892C4.30568 7.22767 4.65005 7.57201 4.65005 8.00001C4.65005 8.42801 4.30568 8.77234 3.61691 9.46109L2.15584 10.9222C1.81614 11.2618 1.6463 11.4317 1.54429 11.6083C1.03126 12.497 1.54039 13.2289 2.15584 13.8443C2.77118 14.4598 3.5032 14.9689 4.39177 14.4558C4.56846 14.3539 4.7383 14.1841 5.078 13.8443L6.53908 12.3833C7.22783 11.6945 7.57216 11.3501 8.00016 11.3501C8.42816 11.3501 8.77249 11.6945 9.46124 12.3833L10.9223 13.8443C11.262 14.1841 11.4318 14.3539 11.6085 14.4558C12.4972 14.9689 13.2292 14.4598 13.8445 13.8443C14.46 13.229 14.9691 12.497 14.456 11.6083C14.3541 11.4317 14.1842 11.2618 13.8445 10.9222C13.1772 10.2548 11.3502 9.01459 11.3502 8.00001C11.3502 7.57201 11.6947 7.22767 12.3834 6.53892Z" stroke="#0B0D12" stroke-width="1.5" stroke-linecap="round" stroke-linejoin="round"/>
</svg>