<svg width="310" height="35" viewBox="0 0 310 35" fill="none" xmlns="http://www.w3.org/2000/svg">
<mask id="path-1-outside-1_198_5222" maskUnits="userSpaceOnUse" x="-2" y="-1" width="314" height="38" fill="black">
<rect fill="white" x="-2" y="-1" width="314" height="38"/>
<path d="M17.528 34.72C7.832 34.72 0.44 27.28 0.44 17.824C0.44 8.368 7.832 0.927999 17.528 0.927999C23.288 0.927999 28.952 4 31.304 9.328L24.056 13.36C22.712 10.96 20.888 9.328 17.144 9.328C12.584 9.328 9.56 12.784 9.56 17.824C9.56 22.864 12.488 26.32 17.144 26.32C20.888 26.32 22.856 24.688 24.056 22.288L31.304 26.32C28.952 31.648 23.288 34.72 17.528 34.72ZM42.3313 1.6V25.84H56.6353V34H41.1313C35.6593 34 33.4513 31.12 33.4513 26.56V1.6H42.3313ZM55.9269 34L64.2789 6.736C65.4789 2.752 68.8389 0.879997 72.1989 0.879997C75.5589 0.879997 78.9189 2.752 80.1189 6.736L88.4709 34H79.3989L77.9109 28.528H66.5349L64.9989 34H55.9269ZM71.8629 9.328L68.7429 20.608H75.7029L72.6309 9.328C72.5349 8.992 72.4389 8.848 72.2469 8.848C72.0549 8.848 71.9589 8.992 71.8629 9.328ZM102.199 34.768C96.0552 34.768 91.2552 32.224 89.0472 27.424L96.4392 23.728C97.3512 25.696 99.1752 26.608 102.199 26.608C104.551 26.608 106.327 25.888 106.327 24.352C106.327 22.432 104.407 22.144 101.479 21.712C96.6312 20.992 89.5272 19.12 89.5272 11.392C89.5272 5.44 94.8552 0.879997 102.055 0.879997C107.719 0.879997 112.519 3.424 114.727 8.224L107.335 11.92C106.423 10.336 104.695 9.04 101.671 9.04C99.5592 9.04 98.4072 9.712 98.4072 11.056C98.4072 12.88 100.519 13.456 103.687 13.936C108.487 14.656 115.207 16.48 115.207 24.256C115.207 30.208 109.399 34.768 102.199 34.768ZM130.045 34.768C123.901 34.768 119.101 32.224 116.893 27.424L124.285 23.728C125.197 25.696 127.021 26.608 130.045 26.608C132.397 26.608 134.173 25.888 134.173 24.352C134.173 22.432 132.253 22.144 129.325 21.712C124.477 20.992 117.373 19.12 117.373 11.392C117.373 5.44 122.701 0.879997 129.901 0.879997C135.565 0.879997 140.365 3.424 142.573 8.224L135.181 11.92C134.269 10.336 132.541 9.04 129.517 9.04C127.405 9.04 126.253 9.712 126.253 11.056C126.253 12.88 128.365 13.456 131.533 13.936C136.333 14.656 143.053 16.48 143.053 24.256C143.053 30.208 137.245 34.768 130.045 34.768ZM146.802 1.6H155.682V34H146.802V1.6ZM176.117 34.72C166.421 34.72 159.029 27.28 159.029 17.824C159.029 8.368 166.421 0.927999 176.117 0.927999C181.877 0.927999 187.541 4 189.893 9.328L182.645 13.36C181.301 10.96 179.477 9.328 175.733 9.328C171.173 9.328 168.149 12.784 168.149 17.824C168.149 22.864 171.077 26.32 175.733 26.32C179.477 26.32 181.445 24.688 182.645 22.288L189.893 26.32C187.541 31.648 181.877 34.72 176.117 34.72ZM210.678 34H201.654L205.926 6.784C206.55 2.944 209.238 0.879997 213.126 0.879997C216.486 0.879997 219.318 2.32 220.23 5.92L224.646 23.104L229.014 6.064C229.926 2.464 232.854 0.879997 236.31 0.879997C240.102 0.879997 242.694 2.992 243.27 6.928L247.11 34H238.134L235.542 11.152L230.406 29.872C229.59 32.752 227.334 34.144 224.646 34.144C222.006 34.144 219.606 32.8 218.886 30.064L213.798 11.104L210.678 34ZM275.014 34H258.166C252.694 34 250.486 31.12 250.486 26.56V9.04C250.486 4.48 252.694 1.6 258.166 1.6H274.774V9.52H259.366V13.84H273.67V21.76H259.366V26.08H275.014V34ZM287.487 34H279.087V6.352C279.087 2.896 281.775 0.831998 284.607 0.831998C286.863 0.831998 288.831 1.6 289.983 3.424L301.407 21.52V1.6H309.807V29.248C309.807 32.704 307.119 34.72 304.287 34.72C302.079 34.72 300.063 33.952 298.911 32.128L287.487 14.032V34Z"/>
</mask>
<path d="M31.304 9.328L32.0332 10.6388L33.2287 9.97377L32.6762 8.72223L31.304 9.328ZM24.056 13.36L22.7472 14.0929L23.4781 15.398L24.7852 14.6708L24.056 13.36ZM24.056 22.288L24.7852 20.9772L23.4154 20.2151L22.7144 21.6172L24.056 22.288ZM31.304 26.32L32.6762 26.9258L33.2287 25.6742L32.0332 25.0092L31.304 26.32ZM17.528 33.22C8.65207 33.22 1.94 26.4432 1.94 17.824H-1.06C-1.06 28.1168 7.01193 36.22 17.528 36.22V33.22ZM1.94 17.824C1.94 9.20476 8.65207 2.428 17.528 2.428V-0.572001C7.01193 -0.572001 -1.06 7.53124 -1.06 17.824H1.94ZM17.528 2.428C22.8035 2.428 27.861 5.24297 29.9318 9.93377L32.6762 8.72223C30.043 2.75703 23.7725 -0.572001 17.528 -0.572001V2.428ZM30.5748 8.01717L23.3268 12.0492L24.7852 14.6708L32.0332 10.6388L30.5748 8.01717ZM25.3648 12.6271C24.6251 11.3062 23.6856 10.0734 22.316 9.18539C20.9337 8.28913 19.2435 7.828 17.144 7.828V10.828C18.7885 10.828 19.8823 11.1829 20.684 11.7026C21.4984 12.2306 22.1429 13.0138 22.7472 14.0929L25.3648 12.6271ZM17.144 7.828C14.4611 7.828 12.1476 8.85662 10.5201 10.6903C8.90692 12.5079 8.06 15.0085 8.06 17.824H11.06C11.06 15.5995 11.7251 13.8521 12.7639 12.6817C13.7884 11.5274 15.2669 10.828 17.144 10.828V7.828ZM8.06 17.824C8.06 20.6273 8.87603 23.1293 10.4797 24.9526C12.1008 26.7959 14.4199 27.82 17.144 27.82V24.82C15.2121 24.82 13.7392 24.1161 12.7323 22.9714C11.708 21.8067 11.06 20.0607 11.06 17.824H8.06ZM17.144 27.82C19.2395 27.82 20.962 27.3608 22.3606 26.4686C23.7567 25.5782 24.7108 24.3325 25.3976 22.9588L22.7144 21.6172C22.2012 22.6435 21.5713 23.4138 20.7474 23.9394C19.926 24.4632 18.7925 24.82 17.144 24.82V27.82ZM23.3268 23.5988L30.5748 27.6308L32.0332 25.0092L24.7852 20.9772L23.3268 23.5988ZM29.9318 25.7142C27.861 30.405 22.8035 33.22 17.528 33.22V36.22C23.7725 36.22 30.043 32.891 32.6762 26.9258L29.9318 25.7142ZM42.3312 1.6H43.8312V0.0999994H42.3312V1.6ZM42.3312 25.84H40.8312V27.34H42.3312V25.84ZM56.6353 25.84H58.1353V24.34H56.6353V25.84ZM56.6353 34V35.5H58.1353V34H56.6353ZM33.4513 1.6V0.0999994H31.9513V1.6H33.4513ZM40.8312 1.6V25.84H43.8312V1.6H40.8312ZM42.3312 27.34H56.6353V24.34H42.3312V27.34ZM55.1353 25.84V34H58.1353V25.84H55.1353ZM56.6353 32.5H41.1312V35.5H56.6353V32.5ZM41.1312 32.5C38.6467 32.5 37.1824 31.8498 36.3223 30.9523C35.4508 30.0427 34.9513 28.6207 34.9513 26.56H31.9513C31.9513 29.0593 32.5557 31.3573 34.1562 33.0277C35.7681 34.7102 38.1438 35.5 41.1312 35.5V32.5ZM34.9513 26.56V1.6H31.9513V26.56H34.9513ZM33.4513 3.1H42.3312V0.0999994H33.4513V3.1ZM55.9269 34L54.4927 33.5606L53.8986 35.5H55.9269V34ZM64.2789 6.736L65.7131 7.17536L65.7151 7.16861L64.2789 6.736ZM80.1189 6.736L78.6826 7.16861L78.6847 7.17535L80.1189 6.736ZM88.4709 34V35.5H90.4992L89.9051 33.5606L88.4709 34ZM79.3989 34L77.9514 34.3936L78.2523 35.5H79.3989V34ZM77.9109 28.528L79.3583 28.1344L79.0574 27.028H77.9109V28.528ZM66.5349 28.528V27.028H65.398L65.0907 28.1226L66.5349 28.528ZM64.9989 34V35.5H66.1358L66.4431 34.4054L64.9989 34ZM71.8629 9.328L70.4205 8.9159L70.4172 8.92812L71.8629 9.328ZM68.7429 20.608L67.2972 20.2081L66.7717 22.108H68.7429V20.608ZM75.7029 20.608V22.108H77.666L77.1502 20.2138L75.7029 20.608ZM72.6309 9.328L74.0782 8.93385L74.0757 8.92487L74.0732 8.91592L72.6309 9.328ZM57.3611 34.4394L65.7131 7.17535L62.8447 6.29664L54.4927 33.5606L57.3611 34.4394ZM65.7151 7.16861C66.6974 3.90765 69.4024 2.38 72.1989 2.38V-0.620003C68.2754 -0.620003 64.2604 1.59635 62.8426 6.30339L65.7151 7.16861ZM72.1989 2.38C74.9954 2.38 77.7004 3.90765 78.6826 7.16861L81.5551 6.30339C80.1374 1.59635 76.1224 -0.620003 72.1989 -0.620003V2.38ZM78.6847 7.17535L87.0367 34.4394L89.9051 33.5606L81.5531 6.29664L78.6847 7.17535ZM88.4709 32.5H79.3989V35.5H88.4709V32.5ZM80.8463 33.6064L79.3583 28.1344L76.4634 28.9216L77.9514 34.3936L80.8463 33.6064ZM77.9109 27.028H66.5349V30.028H77.9109V27.028ZM65.0907 28.1226L63.5547 33.5946L66.4431 34.4054L67.9791 28.9334L65.0907 28.1226ZM64.9989 32.5H55.9269V35.5H64.9989V32.5ZM70.4172 8.92812L67.2972 20.2081L70.1886 21.0079L73.3086 9.72788L70.4172 8.92812ZM68.7429 22.108H75.7029V19.108H68.7429V22.108ZM77.1502 20.2138L74.0782 8.93385L71.1836 9.72215L74.2556 21.0022L77.1502 20.2138ZM74.0732 8.91592C74.0191 8.72686 73.9098 8.3672 73.6638 8.04744C73.3282 7.61115 72.8221 7.348 72.2469 7.348V10.348C72.1011 10.348 71.9067 10.319 71.7036 10.2174C71.5021 10.1167 71.3672 9.98217 71.2859 9.87656C71.2113 9.77957 71.1793 9.70376 71.1743 9.6918C71.1682 9.67736 71.1735 9.68741 71.1886 9.74008L74.0732 8.91592ZM72.2469 7.348C71.6717 7.348 71.1655 7.61115 70.8299 8.04743C70.584 8.3672 70.4746 8.72686 70.4206 8.91592L73.3052 9.74008C73.3202 9.68742 73.3255 9.67737 73.3195 9.69181C73.3145 9.70376 73.2824 9.77957 73.2078 9.87656C73.1266 9.98217 72.9916 10.1167 72.7902 10.2174C72.5871 10.319 72.3927 10.348 72.2469 10.348V7.348ZM89.0472 27.424L88.3764 26.0824L87.0777 26.7317L87.6845 28.0509L89.0472 27.424ZM96.4392 23.728L97.8002 23.0973L97.1505 21.6953L95.7684 22.3864L96.4392 23.728ZM101.479 21.712L101.259 23.1957L101.26 23.1959L101.479 21.712ZM114.727 8.224L115.398 9.56564L116.697 8.91628L116.09 7.59714L114.727 8.224ZM107.335 11.92L106.035 12.6684L106.741 13.8942L108.006 13.2616L107.335 11.92ZM103.687 13.936L103.463 15.4191L103.465 15.4194L103.687 13.936ZM102.199 33.268C96.4753 33.268 92.3108 30.9293 90.41 26.7971L87.6845 28.0509C90.1997 33.5187 95.6352 36.268 102.199 36.268V33.268ZM89.7181 28.7656L97.1101 25.0696L95.7684 22.3864L88.3764 26.0824L89.7181 28.7656ZM95.0783 24.3587C95.6705 25.6367 96.5907 26.6148 97.8564 27.2476C99.0855 27.8622 100.552 28.108 102.199 28.108V25.108C100.822 25.108 99.865 24.8978 99.1981 24.5644C98.5678 24.2492 98.12 23.7873 97.8002 23.0973L95.0783 24.3587ZM102.199 28.108C103.493 28.108 104.789 27.9155 105.82 27.3955C106.909 26.8467 107.827 25.8414 107.827 24.352H104.827C104.827 24.3986 104.857 24.5213 104.47 24.7165C104.026 24.9405 103.258 25.108 102.199 25.108V28.108ZM107.827 24.352C107.827 23.6062 107.635 22.8999 107.185 22.2955C106.751 21.7116 106.168 21.3444 105.597 21.0973C104.527 20.6344 103.081 20.4321 101.698 20.2281L101.26 23.1959C102.806 23.4239 103.784 23.5816 104.406 23.8507C104.68 23.9696 104.76 24.0614 104.778 24.085C104.78 24.0881 104.827 24.1378 104.827 24.352H107.827ZM101.7 20.2283C99.3163 19.8743 96.5948 19.2608 94.4936 17.9165C92.4902 16.6347 91.0272 14.6853 91.0272 11.392H88.0272C88.0272 15.8267 90.1163 18.6773 92.8768 20.4435C95.5396 22.1472 98.7942 22.8297 101.259 23.1957L101.7 20.2283ZM91.0272 11.392C91.0272 6.49666 95.4353 2.38 102.055 2.38V-0.620003C94.2752 -0.620003 88.0272 4.38334 88.0272 11.392H91.0272ZM102.055 2.38C107.269 2.38 111.453 4.69623 113.365 8.85086L116.09 7.59714C113.585 2.15177 108.169 -0.620003 102.055 -0.620003V2.38ZM114.056 6.88236L106.664 10.5784L108.006 13.2616L115.398 9.56564L114.056 6.88236ZM108.635 11.1716C107.444 9.10281 105.209 7.54 101.671 7.54V10.54C104.182 10.54 105.402 11.5692 106.035 12.6684L108.635 11.1716ZM101.671 7.54C100.501 7.54 99.3615 7.71845 98.4673 8.2627C97.4645 8.87313 96.9072 9.86482 96.9072 11.056H99.9072C99.9072 10.9953 99.9137 10.9573 99.9187 10.9368C99.9234 10.9172 99.9279 10.9089 99.9293 10.9064C99.9306 10.904 99.9344 10.8976 99.9457 10.8863C99.9576 10.8743 99.9822 10.8527 100.027 10.8253C100.237 10.6975 100.73 10.54 101.671 10.54V7.54ZM96.9072 11.056C96.9072 11.8285 97.1402 12.5347 97.603 13.1293C98.0444 13.6965 98.6319 14.082 99.224 14.3588C100.37 14.8947 101.895 15.1816 103.463 15.4191L103.912 12.4529C102.312 12.2104 101.196 11.9693 100.495 11.6412C100.163 11.486 100.024 11.3555 99.9705 11.2867C99.9383 11.2453 99.9072 11.1955 99.9072 11.056H96.9072ZM103.465 15.4194C105.825 15.7734 108.426 16.3734 110.416 17.6986C112.303 18.9552 113.707 20.8993 113.707 24.256H116.707C116.707 19.8367 114.751 16.9808 112.079 15.2014C109.509 13.4906 106.35 12.8186 103.91 12.4526L103.465 15.4194ZM113.707 24.256C113.707 29.0861 108.899 33.268 102.199 33.268V36.268C109.9 36.268 116.707 31.3299 116.707 24.256H113.707ZM116.893 27.424L116.222 26.0824L114.923 26.7317L115.53 28.0509L116.893 27.424ZM124.285 23.728L125.646 23.0973L124.996 21.6953L123.614 22.3864L124.285 23.728ZM129.325 21.712L129.105 23.1957L129.106 23.1959L129.325 21.712ZM142.573 8.224L143.244 9.56564L144.542 8.91628L143.936 7.59714L142.573 8.224ZM135.181 11.92L133.881 12.6684L134.587 13.8942L135.852 13.2616L135.181 11.92ZM131.533 13.936L131.308 15.4191L131.31 15.4194L131.533 13.936ZM130.045 33.268C124.321 33.268 120.156 30.9293 118.256 26.7971L115.53 28.0509C118.045 33.5187 123.481 36.268 130.045 36.268V33.268ZM117.564 28.7656L124.956 25.0696L123.614 22.3864L116.222 26.0824L117.564 28.7656ZM122.924 24.3587C123.516 25.6367 124.436 26.6148 125.702 27.2476C126.931 27.8622 128.398 28.108 130.045 28.108V25.108C128.668 25.108 127.711 24.8978 127.044 24.5644C126.413 24.2492 125.966 23.7873 125.646 23.0973L122.924 24.3587ZM130.045 28.108C131.338 28.108 132.634 27.9155 133.666 27.3955C134.755 26.8467 135.673 25.8414 135.673 24.352H132.673C132.673 24.3986 132.703 24.5213 132.316 24.7165C131.871 24.9405 131.104 25.108 130.045 25.108V28.108ZM135.673 24.352C135.673 23.6062 135.48 22.8999 135.031 22.2955C134.597 21.7116 134.014 21.3444 133.442 21.0973C132.372 20.6344 130.926 20.4321 129.544 20.2281L129.106 23.1959C130.651 23.4239 131.629 23.5816 132.251 23.8507C132.526 23.9696 132.606 24.0614 132.623 24.085C132.626 24.0881 132.673 24.1378 132.673 24.352H135.673ZM129.545 20.2283C127.162 19.8743 124.44 19.2608 122.339 17.9165C120.336 16.6347 118.873 14.6853 118.873 11.392H115.873C115.873 15.8267 117.962 18.6773 120.722 20.4435C123.385 22.1472 126.64 22.8297 129.105 23.1957L129.545 20.2283ZM118.873 11.392C118.873 6.49666 123.281 2.38 129.901 2.38V-0.620003C122.121 -0.620003 115.873 4.38334 115.873 11.392H118.873ZM129.901 2.38C135.115 2.38 139.299 4.69623 141.21 8.85086L143.936 7.59714C141.431 2.15177 136.015 -0.620003 129.901 -0.620003V2.38ZM141.902 6.88236L134.51 10.5784L135.852 13.2616L143.244 9.56564L141.902 6.88236ZM136.481 11.1716C135.29 9.10281 133.054 7.54 129.517 7.54V10.54C132.028 10.54 133.248 11.5692 133.881 12.6684L136.481 11.1716ZM129.517 7.54C128.346 7.54 127.207 7.71845 126.313 8.2627C125.31 8.87313 124.753 9.86482 124.753 11.056H127.753C127.753 10.9953 127.759 10.9573 127.764 10.9368C127.769 10.9172 127.774 10.9089 127.775 10.9064C127.776 10.904 127.78 10.8976 127.791 10.8863C127.803 10.8743 127.828 10.8527 127.873 10.8253C128.083 10.6975 128.575 10.54 129.517 10.54V7.54ZM124.753 11.056C124.753 11.8285 124.986 12.5347 125.449 13.1293C125.89 13.6965 126.478 14.082 127.07 14.3588C128.216 14.8947 129.741 15.1816 131.308 15.4191L131.758 12.4529C130.157 12.2104 129.042 11.9693 128.34 11.6412C128.008 11.486 127.87 11.3555 127.816 11.2867C127.784 11.2453 127.753 11.1955 127.753 11.056H124.753ZM131.31 15.4194C133.67 15.7734 136.271 16.3734 138.262 17.6986C140.149 18.9552 141.553 20.8993 141.553 24.256H144.553C144.553 19.8367 142.597 16.9808 139.924 15.2014C137.355 13.4906 134.195 12.8186 131.755 12.4526L131.31 15.4194ZM141.553 24.256C141.553 29.0861 136.744 33.268 130.045 33.268V36.268C137.746 36.268 144.553 31.3299 144.553 24.256H141.553ZM146.802 1.6V0.0999994H145.302V1.6H146.802ZM155.682 1.6H157.182V0.0999994H155.682V1.6ZM155.682 34V35.5H157.182V34H155.682ZM146.802 34H145.302V35.5H146.802V34ZM146.802 3.1H155.682V0.0999994H146.802V3.1ZM154.182 1.6V34H157.182V1.6H154.182ZM155.682 32.5H146.802V35.5H155.682V32.5ZM148.302 34V1.6H145.302V34H148.302ZM189.893 9.328L190.623 10.6388L191.818 9.97377L191.266 8.72223L189.893 9.328ZM182.645 13.36L181.337 14.0929L182.067 15.398L183.375 14.6708L182.645 13.36ZM182.645 22.288L183.375 20.9772L182.005 20.2151L181.304 21.6172L182.645 22.288ZM189.893 26.32L191.266 26.9258L191.818 25.6742L190.623 25.0092L189.893 26.32ZM176.117 33.22C167.241 33.22 160.529 26.4432 160.529 17.824H157.529C157.529 28.1168 165.601 36.22 176.117 36.22V33.22ZM160.529 17.824C160.529 9.20476 167.241 2.428 176.117 2.428V-0.572001C165.601 -0.572001 157.529 7.53124 157.529 17.824H160.529ZM176.117 2.428C181.393 2.428 186.45 5.24297 188.521 9.93377L191.266 8.72223C188.632 2.75703 182.362 -0.572001 176.117 -0.572001V2.428ZM189.164 8.01717L181.916 12.0492L183.375 14.6708L190.623 10.6388L189.164 8.01717ZM183.954 12.6271C183.214 11.3062 182.275 10.0734 180.905 9.18539C179.523 8.28913 177.833 7.828 175.733 7.828V10.828C177.378 10.828 178.472 11.1829 179.273 11.7026C180.088 12.2306 180.732 13.0138 181.337 14.0929L183.954 12.6271ZM175.733 7.828C173.051 7.828 170.737 8.85662 169.11 10.6903C167.496 12.5079 166.649 15.0085 166.649 17.824H169.649C169.649 15.5995 170.314 13.8521 171.353 12.6817C172.378 11.5274 173.856 10.828 175.733 10.828V7.828ZM166.649 17.824C166.649 20.6273 167.465 23.1293 169.069 24.9526C170.69 26.7959 173.009 27.82 175.733 27.82V24.82C173.801 24.82 172.329 24.1161 171.322 22.9714C170.297 21.8067 169.649 20.0607 169.649 17.824H166.649ZM175.733 27.82C177.829 27.82 179.551 27.3608 180.95 26.4686C182.346 25.5782 183.3 24.3325 183.987 22.9588L181.304 21.6172C180.791 22.6435 180.161 23.4138 179.337 23.9394C178.515 24.4632 177.382 24.82 175.733 24.82V27.82ZM181.916 23.5988L189.164 27.6308L190.623 25.0092L183.375 20.9772L181.916 23.5988ZM188.521 25.7142C186.45 30.405 181.393 33.22 176.117 33.22V36.22C182.362 36.22 188.632 32.891 191.266 26.9258L188.521 25.7142ZM210.678 34V35.5H211.987L212.164 34.2025L210.678 34ZM201.654 34L200.172 33.7674L199.9 35.5H201.654V34ZM205.926 6.784L204.445 6.5434L204.444 6.5514L205.926 6.784ZM220.23 5.92L218.776 6.28836L218.777 6.29334L220.23 5.92ZM224.646 23.104L223.193 23.4773L226.099 23.4765L224.646 23.104ZM229.014 6.064L230.467 6.43646L230.468 6.43236L229.014 6.064ZM243.27 6.928L244.755 6.71734L244.754 6.7108L243.27 6.928ZM247.11 34V35.5H248.838L248.595 33.7893L247.11 34ZM238.134 34L236.643 34.1691L236.794 35.5H238.134V34ZM235.542 11.152L237.032 10.9829L234.095 10.7551L235.542 11.152ZM230.406 29.872L231.849 30.2809L231.852 30.2689L230.406 29.872ZM218.886 30.064L220.336 29.6823L220.334 29.6752L218.886 30.064ZM213.798 11.104L215.246 10.7152L212.311 10.9015L213.798 11.104ZM210.678 32.5H201.654V35.5H210.678V32.5ZM203.136 34.2326L207.408 7.0166L204.444 6.5514L200.172 33.7674L203.136 34.2326ZM207.406 7.02459C207.669 5.41051 208.338 4.28889 209.243 3.55997C210.157 2.82346 211.446 2.38 213.126 2.38V-0.620003C210.918 -0.620003 208.919 -0.0314608 207.361 1.22402C205.793 2.48711 204.807 4.31749 204.445 6.5434L207.406 7.02459ZM213.126 2.38C214.604 2.38 215.843 2.69787 216.776 3.30641C217.681 3.89614 218.405 4.82708 218.776 6.28836L221.684 5.55164C221.142 3.41292 219.995 1.82385 218.415 0.793582C216.864 -0.217871 215.008 -0.620003 213.126 -0.620003V2.38ZM218.777 6.29334L223.193 23.4773L226.099 22.7307L221.683 5.54665L218.777 6.29334ZM226.099 23.4765L230.467 6.43646L227.561 5.69153L223.193 22.7315L226.099 23.4765ZM230.468 6.43236C230.836 4.9774 231.583 4.00343 232.536 3.37278C233.512 2.7263 234.801 2.38 236.31 2.38V-0.620003C234.362 -0.620003 232.459 -0.174305 230.88 0.87122C229.276 1.93257 228.103 3.5506 227.56 5.69564L230.468 6.43236ZM236.31 2.38C237.925 2.38 239.152 2.82582 240.021 3.5685C240.888 4.30887 241.54 5.46381 241.786 7.1452L244.754 6.7108C244.424 4.45619 243.491 2.58712 241.97 1.2875C240.451 -0.00981998 238.486 -0.620003 236.31 -0.620003V2.38ZM241.785 7.13866L245.625 34.2107L248.595 33.7893L244.755 6.71734L241.785 7.13866ZM247.11 32.5H238.134V35.5H247.11V32.5ZM239.624 33.8309L237.032 10.9829L234.051 11.3211L236.643 34.1691L239.624 33.8309ZM234.095 10.7551L228.959 29.4751L231.852 30.2689L236.988 11.5489L234.095 10.7551ZM228.963 29.4631C228.64 30.601 228.061 31.3691 227.362 31.863C226.653 32.3641 225.732 32.644 224.646 32.644V35.644C226.247 35.644 227.799 35.2279 229.093 34.313C230.398 33.3909 231.355 32.023 231.849 30.2809L228.963 29.4631ZM224.646 32.644C222.502 32.644 220.84 31.596 220.336 29.6823L217.435 30.4457C218.372 34.004 221.509 35.644 224.646 35.644V32.644ZM220.334 29.6752L215.246 10.7152L212.349 11.4928L217.437 30.4528L220.334 29.6752ZM212.311 10.9015L209.191 33.7975L212.164 34.2025L215.284 11.3065L212.311 10.9015ZM275.014 34V35.5H276.514V34H275.014ZM274.774 1.6H276.274V0.0999994H274.774V1.6ZM274.774 9.52V11.02H276.274V9.52H274.774ZM259.366 9.52V8.02H257.866V9.52H259.366ZM259.366 13.84H257.866V15.34H259.366V13.84ZM273.67 13.84H275.17V12.34H273.67V13.84ZM273.67 21.76V23.26H275.17V21.76H273.67ZM259.366 21.76V20.26H257.866V21.76H259.366ZM259.366 26.08H257.866V27.58H259.366V26.08ZM275.014 26.08H276.514V24.58H275.014V26.08ZM275.014 32.5H258.166V35.5H275.014V32.5ZM258.166 32.5C255.682 32.5 254.217 31.8498 253.357 30.9523C252.486 30.0427 251.986 28.6207 251.986 26.56H248.986C248.986 29.0593 249.591 31.3573 251.191 33.0277C252.803 34.7101 255.179 35.5 258.166 35.5V32.5ZM251.986 26.56V9.04H248.986V26.56H251.986ZM251.986 9.04C251.986 6.97926 252.486 5.55734 253.357 4.64775C254.217 3.75015 255.682 3.1 258.166 3.1V0.0999994C255.179 0.0999994 252.803 0.88985 251.191 2.57225C249.591 4.24266 248.986 6.54074 248.986 9.04H251.986ZM258.166 3.1H274.774V0.0999994H258.166V3.1ZM273.274 1.6V9.52H276.274V1.6H273.274ZM274.774 8.02H259.366V11.02H274.774V8.02ZM257.866 9.52V13.84H260.866V9.52H257.866ZM259.366 15.34H273.67V12.34H259.366V15.34ZM272.17 13.84V21.76H275.17V13.84H272.17ZM273.67 20.26H259.366V23.26H273.67V20.26ZM257.866 21.76V26.08H260.866V21.76H257.866ZM259.366 27.58H275.014V24.58H259.366V27.58ZM273.514 26.08V34H276.514V26.08H273.514ZM287.487 34V35.5H288.987V34H287.487ZM279.087 34H277.587V35.5H279.087V34ZM289.983 3.424L291.252 2.62326L291.252 2.62301L289.983 3.424ZM301.408 21.52L300.139 22.3207L302.908 26.706V21.52H301.408ZM301.408 1.6V0.0999994H299.908V1.6H301.408ZM309.807 1.6H311.307V0.0999994H309.807V1.6ZM298.911 32.128L297.643 32.9287L297.643 32.929L298.911 32.128ZM287.487 14.032L288.756 13.2313L285.987 8.84604V14.032H287.487ZM287.487 32.5H279.087V35.5H287.487V32.5ZM280.587 34V6.352H277.587V34H280.587ZM280.587 6.352C280.587 3.8339 282.49 2.332 284.607 2.332V-0.668002C281.061 -0.668002 277.587 1.9581 277.587 6.352H280.587ZM284.607 2.332C286.531 2.332 287.923 2.97039 288.715 4.22499L291.252 2.62301C289.74 0.229612 287.196 -0.668002 284.607 -0.668002V2.332ZM288.715 4.22474L300.139 22.3207L302.676 20.7193L291.252 2.62326L288.715 4.22474ZM302.908 21.52V1.6H299.908V21.52H302.908ZM301.408 3.1H309.807V0.0999994H301.408V3.1ZM308.307 1.6V29.248H311.307V1.6H308.307ZM308.307 29.248C308.307 31.7489 306.424 33.22 304.287 33.22V36.22C307.815 36.22 311.307 33.6591 311.307 29.248H308.307ZM304.287 33.22C302.406 33.22 300.97 32.5775 300.18 31.327L297.643 32.929C299.157 35.3265 301.753 36.22 304.287 36.22V33.22ZM300.18 31.3273L288.756 13.2313L286.219 14.8327L297.643 32.9287L300.18 31.3273ZM285.987 14.032V34H288.987V14.032H285.987Z" fill="white" mask="url(#path-1-outside-1_198_5222)"/>
</svg>
