<svg width="154" height="22" viewBox="0 0 154 22" fill="none" xmlns="http://www.w3.org/2000/svg">
<mask id="path-1-outside-1_3415_1862" maskUnits="userSpaceOnUse" x="-1.5" y="-1" width="156" height="24" fill="black">
<rect fill="white" x="-1.5" y="-1" width="156" height="24"/>
<path d="M7.94 21H0.2V0.809999H8C13.04 0.809999 16.07 2.91 16.07 6.36C16.07 8.67 14.84 10.23 12.92 10.95C14.93 11.52 16.28 12.81 16.28 15.36C16.28 19.32 12.77 21 7.94 21ZM4.58 4.41V9.21H8.21C10.61 9.21 11.69 8.37 11.69 6.72C11.69 5.22 10.49 4.41 8.24 4.41H4.58ZM4.58 12.81V17.4H8.18C10.31 17.4 11.9 16.92 11.9 15.06C11.9 13.35 10.67 12.81 8.21 12.81H4.58ZM17.3527 21L22.6927 3.66C23.3827 1.47 25.1827 0.419999 27.0727 0.419999C28.9927 0.419999 30.7927 1.47 31.4827 3.66L36.8227 21H32.3527L31.1827 16.86L22.9927 16.89L21.8227 21H17.3527ZM26.4427 4.95L24.1327 12.96H30.0427L27.7627 4.95C27.6427 4.53 27.4627 4.35 27.1027 4.35C26.7727 4.35 26.5627 4.53 26.4427 4.95ZM43.4593 0.809999V16.95H52.8793V21H42.9493C40.1593 21 39.0793 19.56 39.0793 17.25V0.809999H43.4593ZM59.0464 0.809999V16.95H68.4664V21H58.5364C55.7464 21 54.6664 19.56 54.6664 17.25V0.809999H59.0464ZM68.5086 21L73.8486 3.66C74.5386 1.47 76.3386 0.419999 78.2286 0.419999C80.1486 0.419999 81.9486 1.47 82.6386 3.66L87.9786 21H83.5086L82.3386 16.86L74.1486 16.89L72.9786 21H68.5086ZM77.5986 4.95L75.2886 12.96H81.1986L78.9186 4.95C78.7986 4.53 78.6186 4.35 78.2586 4.35C77.9286 4.35 77.7186 4.53 77.5986 4.95ZM93.3852 21H88.9452L91.6752 3.63C92.0352 1.53 93.5052 0.419999 95.5452 0.419999C97.3452 0.419999 98.8752 1.2 99.3552 3.15L102.745 15.75C102.745 15.84 102.775 15.84 102.775 15.84C102.805 15.84 102.835 15.84 102.835 15.75L106.165 3.24C106.675 1.29 108.235 0.419999 110.065 0.419999C112.075 0.419999 113.515 1.56 113.815 3.72L116.305 21H111.865L109.915 5.16C109.915 5.01 109.885 4.92 109.765 4.92C109.675 4.92 109.615 4.98 109.585 5.1L105.835 18.48C105.415 20.01 104.215 20.76 102.775 20.76C101.395 20.76 100.105 20.04 99.7452 18.57L95.9952 5.1C95.9652 4.95 95.9052 4.92 95.8452 4.92C95.7552 4.92 95.6652 4.98 95.6652 5.13L93.3852 21ZM117.261 21L122.601 3.66C123.291 1.47 125.091 0.419999 126.981 0.419999C128.901 0.419999 130.701 1.47 131.391 3.66L136.731 21H132.261L131.091 16.86L122.901 16.89L121.731 21H117.261ZM126.351 4.95L124.041 12.96H129.951L127.671 4.95C127.551 4.53 127.371 4.35 127.011 4.35C126.681 4.35 126.471 4.53 126.351 4.95ZM145.468 21.39C141.838 21.39 138.928 19.86 137.638 16.98L141.298 15.15C141.958 16.62 143.368 17.37 145.468 17.37C147.358 17.37 148.798 16.59 148.798 15.15C148.798 13.47 147.208 13.2 145.108 12.84C142.078 12.33 137.968 11.25 137.968 6.69C137.968 3.15 141.148 0.449998 145.318 0.449998C148.648 0.449998 151.528 1.98 152.818 4.86L149.158 6.69C148.498 5.4 147.178 4.5 145.138 4.5C143.488 4.5 142.348 5.28 142.348 6.51C142.348 8.13 144.028 8.55 146.218 8.94C149.218 9.45 153.178 10.53 153.178 15.12C153.178 18.75 149.758 21.39 145.468 21.39Z"/>
</mask>
<path d="M0.2 21H-0.8V22H0.2V21ZM0.2 0.809999V-0.190001H-0.8V0.809999H0.2ZM12.92 10.95L12.5689 10.0137L9.72005 11.082L12.6472 11.9121L12.92 10.95ZM4.58 4.41V3.41H3.58V4.41H4.58ZM4.58 9.21H3.58V10.21H4.58V9.21ZM4.58 12.81V11.81H3.58V12.81H4.58ZM4.58 17.4H3.58V18.4H4.58V17.4ZM7.94 20H0.2V22H7.94V20ZM1.2 21V0.809999H-0.8V21H1.2ZM0.2 1.81H8V-0.190001H0.2V1.81ZM8 1.81C10.3997 1.81 12.1939 2.31266 13.3575 3.11464C14.4807 3.88872 15.07 4.97169 15.07 6.36H17.07C17.07 4.29831 16.1443 2.60627 14.4925 1.46786C12.8811 0.357337 10.6403 -0.190001 8 -0.190001V1.81ZM15.07 6.36C15.07 7.33121 14.814 8.09044 14.4005 8.67114C13.9848 9.25476 13.3705 9.71305 12.5689 10.0137L13.2711 11.8863C14.3895 11.467 15.3502 10.7852 16.0295 9.83136C16.711 8.87456 17.07 7.69879 17.07 6.36H15.07ZM12.6472 11.9121C13.5236 12.1606 14.1613 12.5393 14.5829 13.0495C14.9955 13.5489 15.28 14.2694 15.28 15.36H17.28C17.28 13.9006 16.8895 12.7011 16.1246 11.7755C15.3687 10.8607 14.3264 10.3094 13.1928 9.98794L12.6472 11.9121ZM15.28 15.36C15.28 16.9834 14.5906 18.0761 13.3957 18.8142C12.1379 19.5912 10.2654 20 7.94 20V22C10.4446 22 12.7421 21.5688 14.4468 20.5158C16.2144 19.4239 17.28 17.6966 17.28 15.36H15.28ZM3.58 4.41V9.21H5.58V4.41H3.58ZM4.58 10.21H8.21V8.21H4.58V10.21ZM8.21 10.21C9.49359 10.21 10.6179 9.99153 11.4398 9.39133C12.3251 8.7448 12.69 7.78563 12.69 6.72H10.69C10.69 7.30437 10.5149 7.5902 10.2603 7.77616C9.94214 8.00847 9.32641 8.21 8.21 8.21V10.21ZM12.69 6.72C12.69 5.65901 12.242 4.7599 11.3659 4.1721C10.5502 3.62478 9.45848 3.41 8.24 3.41V5.41C9.27152 5.41 9.90479 5.60022 10.2516 5.8329C10.538 6.02509 10.69 6.28099 10.69 6.72H12.69ZM8.24 3.41H4.58V5.41H8.24V3.41ZM3.58 12.81V17.4H5.58V12.81H3.58ZM4.58 18.4H8.18V16.4H4.58V18.4ZM8.18 18.4C9.28023 18.4 10.4178 18.2833 11.3078 17.8107C11.7728 17.5637 12.1865 17.2112 12.4777 16.7215C12.7683 16.233 12.9 15.6703 12.9 15.06H10.9C10.9 15.3797 10.8329 15.5745 10.7588 15.6991C10.6854 15.8226 10.5685 15.9388 10.3697 16.0443C9.93219 16.2767 9.20977 16.4 8.18 16.4V18.4ZM12.9 15.06C12.9 14.5146 12.8019 13.9901 12.5536 13.52C12.3008 13.0413 11.9249 12.6814 11.4708 12.4239C10.6146 11.9383 9.46451 11.81 8.21 11.81V13.81C9.41549 13.81 10.1104 13.9517 10.4842 14.1636C10.6451 14.2549 10.7305 14.3506 10.7851 14.4541C10.8443 14.5662 10.9 14.7504 10.9 15.06H12.9ZM8.21 11.81H4.58V13.81H8.21V11.81ZM17.3527 21L16.397 20.7057L15.9984 22H17.3527V21ZM22.6927 3.66L21.7389 3.35949L21.737 3.36568L22.6927 3.66ZM31.4827 3.66L32.4385 3.36567L32.4365 3.35949L31.4827 3.66ZM36.8227 21V22H38.177L37.7784 20.7057L36.8227 21ZM32.3527 21L31.3904 21.272L31.5962 22H32.3527V21ZM31.1827 16.86L32.145 16.588L31.9385 15.8572L31.1791 15.86L31.1827 16.86ZM22.9927 16.89L22.9891 15.89L22.2369 15.8928L22.0309 16.6162L22.9927 16.89ZM21.8227 21V22H22.5778L22.7845 21.2738L21.8227 21ZM26.4427 4.95L27.4036 5.2271L27.4043 5.22472L26.4427 4.95ZM24.1327 12.96L23.1719 12.6829L22.8036 13.96H24.1327V12.96ZM30.0427 12.96V13.96H31.3671L31.0045 12.6862L30.0427 12.96ZM27.7627 4.95L28.7245 4.67623L28.7243 4.67528L27.7627 4.95ZM18.3084 21.2943L23.6484 3.95432L21.737 3.36568L16.397 20.7057L18.3084 21.2943ZM23.6465 3.96051C24.1927 2.22709 25.5755 1.42 27.0727 1.42V-0.580001C24.7899 -0.580001 22.5728 0.712905 21.739 3.35949L23.6465 3.96051ZM27.0727 1.42C28.6038 1.42 29.9839 2.23053 30.529 3.96051L32.4365 3.35949C31.6016 0.709464 29.3817 -0.580001 27.0727 -0.580001V1.42ZM30.527 3.95432L35.867 21.2943L37.7784 20.7057L32.4384 3.36568L30.527 3.95432ZM36.8227 20H32.3527V22H36.8227V20ZM33.315 20.728L32.145 16.588L30.2204 17.132L31.3904 21.272L33.315 20.728ZM31.1791 15.86L22.9891 15.89L22.9964 17.89L31.1864 17.86L31.1791 15.86ZM22.0309 16.6162L20.8609 20.7262L22.7845 21.2738L23.9545 17.1638L22.0309 16.6162ZM21.8227 20H17.3527V22H21.8227V20ZM25.4819 4.6729L23.1719 12.6829L25.0936 13.2371L27.4036 5.2271L25.4819 4.6729ZM24.1327 13.96H30.0427V11.96H24.1327V13.96ZM31.0045 12.6862L28.7245 4.67623L26.8009 5.22377L29.0809 13.2338L31.0045 12.6862ZM28.7243 4.67528C28.645 4.39792 28.5055 4.0404 28.2032 3.75971C27.8656 3.44621 27.4616 3.35 27.1027 3.35V5.35C27.1109 5.35 27.0774 5.3512 27.0208 5.33208C26.9586 5.31106 26.8952 5.27443 26.8423 5.22529C26.7932 5.17972 26.7733 5.14216 26.7719 5.13938C26.7715 5.13869 26.7832 5.16184 26.8012 5.22472L28.7243 4.67528ZM27.1027 3.35C26.7411 3.35 26.3526 3.45553 26.0264 3.74793C25.7246 4.01857 25.5692 4.36718 25.4812 4.67528L27.4043 5.22472C27.4362 5.11282 27.4459 5.16143 27.3615 5.23707C27.3161 5.27775 27.2608 5.3102 27.2033 5.33006C27.1488 5.34883 27.111 5.35 27.1027 5.35V3.35ZM43.4593 0.809999H44.4593V-0.190001H43.4593V0.809999ZM43.4593 16.95H42.4593V17.95H43.4593V16.95ZM52.8793 16.95H53.8793V15.95H52.8793V16.95ZM52.8793 21V22H53.8793V21H52.8793ZM39.0793 0.809999V-0.190001H38.0793V0.809999H39.0793ZM42.4593 0.809999V16.95H44.4593V0.809999H42.4593ZM43.4593 17.95H52.8793V15.95H43.4593V17.95ZM51.8793 16.95V21H53.8793V16.95H51.8793ZM52.8793 20H42.9493V22H52.8793V20ZM42.9493 20C41.7165 20 41.0567 19.6838 40.6917 19.3011C40.3182 18.9095 40.0793 18.2669 40.0793 17.25H38.0793C38.0793 18.5431 38.3804 19.7755 39.2444 20.6814C40.1169 21.5962 41.3921 22 42.9493 22V20ZM40.0793 17.25V0.809999H38.0793V17.25H40.0793ZM39.0793 1.81H43.4593V-0.190001H39.0793V1.81ZM59.0464 0.809999H60.0464V-0.190001H59.0464V0.809999ZM59.0464 16.95H58.0464V17.95H59.0464V16.95ZM68.4664 16.95H69.4664V15.95H68.4664V16.95ZM68.4664 21V22H69.4664V21H68.4664ZM54.6664 0.809999V-0.190001H53.6664V0.809999H54.6664ZM58.0464 0.809999V16.95H60.0464V0.809999H58.0464ZM59.0464 17.95H68.4664V15.95H59.0464V17.95ZM67.4664 16.95V21H69.4664V16.95H67.4664ZM68.4664 20H58.5364V22H68.4664V20ZM58.5364 20C57.3036 20 56.6438 19.6838 56.2788 19.3011C55.9053 18.9095 55.6664 18.2669 55.6664 17.25H53.6664C53.6664 18.5431 53.9675 19.7755 54.8315 20.6814C55.704 21.5962 56.9792 22 58.5364 22V20ZM55.6664 17.25V0.809999H53.6664V17.25H55.6664ZM54.6664 1.81H59.0464V-0.190001H54.6664V1.81ZM68.5086 21L67.5529 20.7057L67.1543 22H68.5086V21ZM73.8486 3.66L72.8948 3.35949L72.8929 3.36568L73.8486 3.66ZM82.6386 3.66L83.5943 3.36567L83.5924 3.35949L82.6386 3.66ZM87.9786 21V22H89.3329L88.9343 20.7057L87.9786 21ZM83.5086 21L82.5463 21.272L82.752 22H83.5086V21ZM82.3386 16.86L83.3009 16.588L83.0944 15.8572L82.3349 15.86L82.3386 16.86ZM74.1486 16.89L74.1449 15.89L73.3927 15.8928L73.1868 16.6162L74.1486 16.89ZM72.9786 21V22H73.7337L73.9404 21.2738L72.9786 21ZM77.5986 4.95L78.5594 5.2271L78.5601 5.22472L77.5986 4.95ZM75.2886 12.96L74.3278 12.6829L73.9594 13.96H75.2886V12.96ZM81.1986 12.96V13.96H82.523L82.1604 12.6862L81.1986 12.96ZM78.9186 4.95L79.8804 4.67623L79.8801 4.67528L78.9186 4.95ZM69.4643 21.2943L74.8043 3.95432L72.8929 3.36568L67.5529 20.7057L69.4643 21.2943ZM74.8024 3.96051C75.3485 2.22709 76.7314 1.42 78.2286 1.42V-0.580001C75.9458 -0.580001 73.7287 0.712905 72.8948 3.35949L74.8024 3.96051ZM78.2286 1.42C79.7597 1.42 81.1398 2.23053 81.6848 3.96051L83.5924 3.35949C82.7574 0.709464 80.5375 -0.580001 78.2286 -0.580001V1.42ZM81.6829 3.95432L87.0229 21.2943L88.9343 20.7057L83.5943 3.36568L81.6829 3.95432ZM87.9786 20H83.5086V22H87.9786V20ZM84.4709 20.728L83.3009 16.588L81.3763 17.132L82.5463 21.272L84.4709 20.728ZM82.3349 15.86L74.1449 15.89L74.1523 17.89L82.3423 17.86L82.3349 15.86ZM73.1868 16.6162L72.0168 20.7262L73.9404 21.2738L75.1104 17.1638L73.1868 16.6162ZM72.9786 20H68.5086V22H72.9786V20ZM76.6377 4.6729L74.3278 12.6829L76.2494 13.2371L78.5594 5.2271L76.6377 4.6729ZM75.2886 13.96H81.1986V11.96H75.2886V13.96ZM82.1604 12.6862L79.8804 4.67623L77.9568 5.22377L80.2368 13.2338L82.1604 12.6862ZM79.8801 4.67528C79.8009 4.39792 79.6613 4.0404 79.359 3.75971C79.0214 3.44621 78.6174 3.35 78.2586 3.35V5.35C78.2668 5.35 78.2332 5.3512 78.1767 5.33208C78.1144 5.31106 78.0511 5.27443 77.9981 5.22529C77.9491 5.17972 77.9292 5.14216 77.9277 5.13938C77.9274 5.13869 77.9391 5.16184 77.9571 5.22472L79.8801 4.67528ZM78.2586 3.35C77.8969 3.35 77.5084 3.45553 77.1823 3.74793C76.8804 4.01857 76.7251 4.36718 76.6371 4.67528L78.5601 5.22472C78.5921 5.11282 78.6018 5.16143 78.5174 5.23707C78.472 5.27775 78.4167 5.3102 78.3591 5.33006C78.3047 5.34883 78.2668 5.35 78.2586 5.35V3.35ZM93.3852 21V22H94.2518L94.375 21.1422L93.3852 21ZM88.9452 21L87.9573 20.8447L87.7757 22H88.9452V21ZM91.6752 3.63L90.6894 3.46102L90.6873 3.47474L91.6752 3.63ZM99.3552 3.15L98.3841 3.38902L98.3867 3.39944L98.3895 3.40981L99.3552 3.15ZM102.745 15.75H103.745V15.6178L103.711 15.4902L102.745 15.75ZM102.835 15.75L101.869 15.4928L101.835 15.6192V15.75H102.835ZM106.165 3.24L107.132 3.49723L107.133 3.49303L106.165 3.24ZM113.815 3.72L112.825 3.85757L112.825 3.86262L113.815 3.72ZM116.305 21V22H117.46L117.295 20.8574L116.305 21ZM111.865 21L110.873 21.1222L110.981 22H111.865V21ZM109.915 5.16H108.915V5.22132L108.923 5.28218L109.915 5.16ZM109.585 5.1L110.548 5.36987L110.552 5.35626L110.555 5.34254L109.585 5.1ZM105.835 18.48L104.872 18.2101L104.871 18.2153L105.835 18.48ZM99.7452 18.57L100.716 18.3321L100.713 18.3169L100.709 18.3018L99.7452 18.57ZM95.9952 5.1L95.0146 5.29611L95.0219 5.33247L95.0318 5.3682L95.9952 5.1ZM95.6652 5.13L96.655 5.27221L96.6652 5.20147V5.13H95.6652ZM93.3852 20H88.9452V22H93.3852V20ZM89.933 21.1553L92.663 3.78526L90.6873 3.47474L87.9573 20.8447L89.933 21.1553ZM92.6608 3.79896C92.8062 2.95048 93.1583 2.37961 93.6091 2.01495C94.0649 1.64622 94.7066 1.42 95.5452 1.42V-0.580001C94.3437 -0.580001 93.2304 -0.251227 92.3512 0.46005C91.467 1.17539 90.9041 2.20951 90.6895 3.46103L92.6608 3.79896ZM95.5452 1.42C96.309 1.42 96.9347 1.58624 97.3959 1.88939C97.8378 2.17988 98.2001 2.64127 98.3841 3.38902L100.326 2.91098C100.03 1.70873 99.3875 0.805114 98.4944 0.218105C97.6206 -0.356242 96.5814 -0.580001 95.5452 -0.580001V1.42ZM98.3895 3.40981L101.779 16.0098L103.711 15.4902L100.321 2.89019L98.3895 3.40981ZM101.745 15.75C101.745 15.8745 101.76 16.1315 101.928 16.3834C102.021 16.5227 102.153 16.648 102.323 16.733C102.405 16.7739 102.487 16.801 102.564 16.8176C102.603 16.8259 102.64 16.8315 102.675 16.835C102.693 16.8368 102.71 16.838 102.727 16.8388C102.735 16.8392 102.743 16.8395 102.751 16.8397C102.755 16.8398 102.759 16.8399 102.763 16.8399C102.765 16.84 102.767 16.84 102.769 16.84C102.77 16.84 102.772 16.84 102.772 16.84C102.774 16.84 102.775 16.84 102.775 15.84C102.775 14.84 102.777 14.84 102.778 14.84C102.779 14.84 102.78 14.84 102.781 14.84C102.783 14.84 102.785 14.84 102.787 14.8401C102.791 14.8401 102.795 14.8402 102.799 14.8403C102.807 14.8405 102.815 14.8408 102.823 14.8412C102.84 14.842 102.857 14.8432 102.874 14.8449C102.909 14.8484 102.946 14.8539 102.983 14.862C103.059 14.8783 103.139 14.9047 103.218 14.9442C103.382 15.0264 103.507 15.1461 103.592 15.2741C103.745 15.5035 103.745 15.7155 103.745 15.75H101.745ZM102.775 16.84C102.776 16.84 102.784 16.84 102.793 16.8399C102.802 16.8398 102.816 16.8395 102.834 16.8387C102.868 16.8371 102.925 16.8329 102.993 16.8192C103.143 16.7892 103.346 16.7136 103.524 16.5359C103.84 16.2194 103.835 15.8266 103.835 15.75H101.835C101.835 15.725 101.836 15.6499 101.862 15.5511C101.889 15.4486 101.953 15.2783 102.109 15.1216C102.437 14.7942 102.871 14.84 102.775 14.84V16.84ZM103.802 16.0072L107.132 3.49723L105.199 2.98277L101.869 15.4928L103.802 16.0072ZM107.133 3.49303C107.33 2.73884 107.711 2.24458 108.18 1.92728C108.663 1.60103 109.304 1.42 110.065 1.42V-0.580001C108.997 -0.580001 107.942 -0.326032 107.06 0.270217C106.165 0.87542 105.51 1.79116 105.198 2.98697L107.133 3.49303ZM110.065 1.42C110.88 1.42 111.497 1.64848 111.931 2.01988C112.363 2.38884 112.702 2.97476 112.825 3.85757L114.806 3.58243C114.628 2.30524 114.098 1.24116 113.231 0.500123C112.368 -0.238478 111.26 -0.580001 110.065 -0.580001V1.42ZM112.825 3.86262L115.315 21.1426L117.295 20.8574L114.805 3.57737L112.825 3.86262ZM116.305 20H111.865V22H116.305V20ZM112.858 20.8778L110.908 5.03782L108.923 5.28218L110.873 21.1222L112.858 20.8778ZM110.915 5.16C110.915 5.0674 110.915 4.78418 110.763 4.5049C110.672 4.33887 110.528 4.17371 110.32 4.05931C110.118 3.94903 109.919 3.92 109.765 3.92V5.92C109.671 5.92 109.521 5.90221 109.359 5.8135C109.189 5.72067 109.075 5.58738 109.007 5.4626C108.946 5.34986 108.927 5.25489 108.921 5.21598C108.914 5.1746 108.915 5.15131 108.915 5.16H110.915ZM109.765 3.92C109.473 3.92 109.175 4.02809 108.946 4.25789C108.742 4.46176 108.655 4.69721 108.615 4.85745L110.555 5.34254C110.545 5.38279 110.504 5.52824 110.36 5.67211C110.19 5.8419 109.968 5.92 109.765 5.92V3.92ZM108.622 4.83013L104.872 18.2101L106.798 18.7499L110.548 5.36987L108.622 4.83013ZM104.871 18.2153C104.717 18.7764 104.438 19.1443 104.108 19.3789C103.771 19.6184 103.322 19.76 102.775 19.76V21.76C103.668 21.76 104.539 21.5266 105.267 21.0086C106.003 20.4857 106.534 19.7136 106.799 18.7447L104.871 18.2153ZM102.775 19.76C101.727 19.76 100.939 19.2409 100.716 18.3321L98.7739 18.8079C99.2713 20.8391 101.063 21.76 102.775 21.76V19.76ZM100.709 18.3018L96.9585 4.8318L95.0318 5.3682L98.7818 18.8382L100.709 18.3018ZM96.9757 4.90388C96.9426 4.73809 96.8636 4.4717 96.6385 4.24664C96.3753 3.98339 96.0611 3.92 95.8452 3.92V5.92C95.6892 5.92 95.4351 5.87161 95.2243 5.66086C95.0517 5.4883 95.0177 5.31191 95.0146 5.29611L96.9757 4.90388ZM95.8452 3.92C95.5821 3.92 95.2665 4.00944 95.0143 4.26164C94.7544 4.5215 94.6652 4.84982 94.6652 5.13H96.6652C96.6652 5.26018 96.6209 5.4835 96.4285 5.67586C96.2438 5.86056 96.0182 5.92 95.8452 5.92V3.92ZM94.6753 4.98779L92.3953 20.8578L94.375 21.1422L96.655 5.27221L94.6753 4.98779ZM117.261 21L116.305 20.7057L115.907 22H117.261V21ZM122.601 3.66L121.647 3.35949L121.645 3.36568L122.601 3.66ZM131.391 3.66L132.347 3.36567L132.345 3.35949L131.391 3.66ZM136.731 21V22H138.085L137.687 20.7057L136.731 21ZM132.261 21L131.299 21.272L131.504 22H132.261V21ZM131.091 16.86L132.053 16.588L131.847 15.8572L131.087 15.86L131.091 16.86ZM122.901 16.89L122.897 15.89L122.145 15.8928L121.939 16.6162L122.901 16.89ZM121.731 21V22H122.486L122.693 21.2738L121.731 21ZM126.351 4.95L127.312 5.2271L127.312 5.22472L126.351 4.95ZM124.041 12.96L123.08 12.6829L122.712 13.96H124.041V12.96ZM129.951 12.96V13.96H131.275L130.913 12.6862L129.951 12.96ZM127.671 4.95L128.633 4.67623L128.632 4.67528L127.671 4.95ZM118.217 21.2943L123.557 3.95432L121.645 3.36568L116.305 20.7057L118.217 21.2943ZM123.555 3.96051C124.101 2.22709 125.484 1.42 126.981 1.42V-0.580001C124.698 -0.580001 122.481 0.712905 121.647 3.35949L123.555 3.96051ZM126.981 1.42C128.512 1.42 129.892 2.23053 130.437 3.96051L132.345 3.35949C131.51 0.709464 129.29 -0.580001 126.981 -0.580001V1.42ZM130.435 3.95432L135.775 21.2943L137.687 20.7057L132.347 3.36568L130.435 3.95432ZM136.731 20H132.261V22H136.731V20ZM133.223 20.728L132.053 16.588L130.129 17.132L131.299 21.272L133.223 20.728ZM131.087 15.86L122.897 15.89L122.905 17.89L131.095 17.86L131.087 15.86ZM121.939 16.6162L120.769 20.7262L122.693 21.2738L123.863 17.1638L121.939 16.6162ZM121.731 20H117.261V22H121.731V20ZM125.39 4.6729L123.08 12.6829L125.002 13.2371L127.312 5.2271L125.39 4.6729ZM124.041 13.96H129.951V11.96H124.041V13.96ZM130.913 12.6862L128.633 4.67623L126.709 5.22377L128.989 13.2338L130.913 12.6862ZM128.632 4.67528C128.553 4.39792 128.414 4.0404 128.111 3.75971C127.774 3.44621 127.37 3.35 127.011 3.35V5.35C127.019 5.35 126.986 5.3512 126.929 5.33208C126.867 5.31106 126.803 5.27443 126.75 5.22529C126.701 5.17972 126.682 5.14216 126.68 5.13938C126.68 5.13869 126.691 5.16184 126.709 5.22472L128.632 4.67528ZM127.011 3.35C126.649 3.35 126.261 3.45553 125.935 3.74793C125.633 4.01857 125.477 4.36718 125.389 4.67528L127.312 5.22472C127.344 5.11282 127.354 5.16143 127.27 5.23707C127.224 5.27775 127.169 5.3102 127.111 5.33006C127.057 5.34883 127.019 5.35 127.011 5.35V3.35ZM137.638 16.98L137.19 16.0856L136.333 16.5142L136.725 17.3888L137.638 16.98ZM141.298 15.15L142.21 14.7404L141.783 13.7893L140.85 14.2556L141.298 15.15ZM145.108 12.84L145.276 11.8544L145.273 11.8539L145.108 12.84ZM152.818 4.86L153.265 5.75443L154.122 5.32584L153.73 4.45122L152.818 4.86ZM149.158 6.69L148.267 7.14548L148.719 8.02752L149.605 7.58443L149.158 6.69ZM146.218 8.94L146.042 9.92454L146.05 9.92586L146.218 8.94ZM145.468 20.39C142.115 20.39 139.636 18.9961 138.55 16.5712L136.725 17.3888C138.219 20.7239 141.56 22.39 145.468 22.39V20.39ZM138.085 17.8744L141.745 16.0444L140.85 14.2556L137.19 16.0856L138.085 17.8744ZM140.385 15.5596C141.258 17.5041 143.118 18.37 145.468 18.37V16.37C143.617 16.37 142.657 15.7359 142.21 14.7404L140.385 15.5596ZM145.468 18.37C146.531 18.37 147.568 18.1534 148.374 17.6465C149.216 17.1164 149.798 16.2632 149.798 15.15H147.798C147.798 15.4768 147.659 15.7336 147.309 15.9535C146.922 16.1966 146.294 16.37 145.468 16.37V18.37ZM149.798 15.15C149.798 14.5644 149.656 14.0282 149.343 13.5682C149.035 13.1166 148.614 12.8141 148.179 12.6015C147.361 12.2017 146.272 12.025 145.276 11.8544L144.939 13.8256C146.043 14.015 146.799 14.1533 147.301 14.3985C147.526 14.5084 147.633 14.6109 147.69 14.6936C147.74 14.7681 147.798 14.8956 147.798 15.15H149.798ZM145.273 11.8539C143.77 11.6008 142.163 11.2273 140.942 10.4425C139.792 9.7033 138.967 8.59523 138.967 6.69H136.967C136.967 9.34477 138.198 11.0567 139.861 12.125C141.452 13.1477 143.415 13.5692 144.942 13.8261L145.273 11.8539ZM138.967 6.69C138.967 3.8495 141.54 1.45 145.318 1.45V-0.550002C140.755 -0.550002 136.967 2.45049 136.967 6.69H138.967ZM145.318 1.45C148.345 1.45 150.81 2.8249 151.905 5.26878L153.73 4.45122C152.245 1.1351 148.95 -0.550002 145.318 -0.550002V1.45ZM152.37 3.96557L148.71 5.79557L149.605 7.58443L153.265 5.75443L152.37 3.96557ZM150.048 6.23452C149.2 4.57706 147.514 3.5 145.138 3.5V5.5C146.841 5.5 147.795 6.22294 148.267 7.14548L150.048 6.23452ZM145.138 3.5C144.169 3.5 143.251 3.72727 142.545 4.22834C141.811 4.74901 141.348 5.54496 141.348 6.51H143.348C143.348 6.24504 143.454 6.03599 143.703 5.85916C143.979 5.66273 144.456 5.5 145.138 5.5V3.5ZM141.348 6.51C141.348 7.10013 141.505 7.6351 141.826 8.09259C142.138 8.53768 142.562 8.84881 143.004 9.07582C143.854 9.51185 144.971 9.73382 146.042 9.92451L146.393 7.95549C145.274 7.75618 144.456 7.57315 143.918 7.29668C143.666 7.16744 143.534 7.04544 143.463 6.94397C143.4 6.8549 143.348 6.72987 143.348 6.51H141.348ZM146.05 9.92586C147.536 10.1786 149.093 10.5509 150.269 11.3328C151.373 12.0667 152.178 13.1806 152.178 15.12H154.178C154.178 12.4694 153.002 10.7483 151.376 9.66725C149.822 8.63412 147.899 8.21143 146.385 7.95414L146.05 9.92586ZM152.178 15.12C152.178 18.0016 149.424 20.39 145.468 20.39V22.39C150.091 22.39 154.178 19.4984 154.178 15.12H152.178Z" fill="#1D1D1D" mask="url(#path-1-outside-1_3415_1862)"/>
</svg>
