<svg width="159" height="118" viewBox="0 0 159 118" fill="none" xmlns="http://www.w3.org/2000/svg">
<path d="M85.9249 4.9371L86.2102 15.2663C86.3165 19.1139 89.4128 22.2081 93.2629 22.3143L103.599 22.5994L93.2629 22.8846C89.4128 22.9909 86.3165 26.085 86.2102 29.9326L85.9249 40.2618L85.6393 29.9326C85.5331 26.085 82.4369 22.9909 78.5866 22.8846L68.2505 22.5994L78.5866 22.3143C82.4369 22.2081 85.5331 19.1139 85.6393 15.2663L85.9249 4.9371Z" fill="#484D56"/>
<path d="M85.9249 4.9371L86.2102 15.2663C86.3165 19.1139 89.4128 22.2081 93.2629 22.3143L103.599 22.5994L93.2629 22.8846C89.4128 22.9909 86.3165 26.085 86.2102 29.9326L85.9249 40.2618L85.6393 29.9326C85.5331 26.085 82.4369 22.9909 78.5866 22.8846L68.2505 22.5994L78.5866 22.3143C82.4369 22.2081 85.5331 19.1139 85.6393 15.2663L85.9249 4.9371Z" fill="black" fill-opacity="0.2"/>
<path d="M61.0365 76.6679L61.2928 85.9431C61.3884 89.3981 64.1685 92.1765 67.6259 92.2718L76.9073 92.5279L67.6259 92.7841C64.1685 92.8795 61.3884 95.6578 61.2928 99.1128L61.0365 108.388L60.7802 99.1128C60.6849 95.6578 57.9045 92.8795 54.4472 92.7841L45.1658 92.5279L54.4472 92.2718C57.9045 92.1765 60.6849 89.3981 60.7802 85.9431L61.0365 76.6679Z" fill="#484D56"/>
<path d="M61.0365 76.6679L61.2928 85.9431C61.3884 89.3981 64.1685 92.1765 67.6259 92.2718L76.9073 92.5279L67.6259 92.7841C64.1685 92.8795 61.3884 95.6578 61.2928 99.1128L61.0365 108.388L60.7802 99.1128C60.6849 95.6578 57.9045 92.8795 54.4472 92.7841L45.1658 92.5279L54.4472 92.2718C57.9045 92.1765 60.6849 89.3981 60.7802 85.9431L61.0365 76.6679Z" fill="black" fill-opacity="0.2"/>
<path d="M145.429 35.356C148.666 44.3208 144.348 55.1532 134.528 65.4589C124.725 75.7474 109.516 85.4192 91.2197 92.0153C72.9237 98.6113 55.0386 100.871 40.9206 99.2068C26.7785 97.5398 16.5344 91.9573 13.298 82.9926C10.0616 74.0277 14.3798 63.1954 24.1995 52.8896C34.0026 42.6013 49.2117 32.9295 67.5076 26.3334C85.8037 19.7371 103.689 17.4777 117.807 19.1418C131.949 20.8088 142.193 26.3912 145.429 35.356Z" stroke="#484D56" stroke-width="0.476532"/>
<path d="M145.429 35.356C148.666 44.3208 144.348 55.1532 134.528 65.4589C124.725 75.7474 109.516 85.4192 91.2197 92.0153C72.9237 98.6113 55.0386 100.871 40.9206 99.2068C26.7785 97.5398 16.5344 91.9573 13.298 82.9926C10.0616 74.0277 14.3798 63.1954 24.1995 52.8896C34.0026 42.6013 49.2117 32.9295 67.5076 26.3334C85.8037 19.7371 103.689 17.4777 117.807 19.1418C131.949 20.8088 142.193 26.3912 145.429 35.356Z" stroke="black" stroke-opacity="0.2" stroke-width="0.476532"/>
</svg>