<svg width="30" height="30" viewBox="0 0 30 30" fill="none" xmlns="http://www.w3.org/2000/svg">
<path d="M21.875 6.25C22.9105 6.25 23.75 7.08946 23.75 8.125C23.75 9.16054 22.9105 10 21.875 10C20.8395 10 20 9.16054 20 8.125C20 7.08946 20.8395 6.25 21.875 6.25Z" stroke="white" stroke-width="2" stroke-linecap="round" stroke-linejoin="round"/>
<path d="M3.46779 13.9299C2.21385 15.3304 2.18688 17.4432 3.3377 18.9296C5.62139 21.8791 8.12093 24.3786 11.0704 26.6622C12.5568 27.8131 14.6696 27.7861 16.0701 26.5322C19.8724 23.1277 23.3544 19.5699 26.7149 15.6599C27.0471 15.2734 27.2549 14.7996 27.3015 14.292C27.5078 12.0475 27.9315 5.58084 26.1754 3.82467C24.4191 2.06851 17.9525 2.49221 15.708 2.69845C15.2004 2.7451 14.7266 2.95291 14.34 3.28514C10.4302 6.64557 6.87227 10.1276 3.46779 13.9299Z" stroke="white" stroke-width="2"/>
<path d="M17.2355 15.4581C17.2621 14.9569 17.4028 14.04 16.6406 13.343M16.6406 13.343C16.4048 13.1274 16.0825 12.9327 15.6436 12.7781C14.0729 12.2245 12.1436 14.0774 13.5084 15.7735C14.242 16.6852 14.8076 16.9656 14.7544 18.001C14.7169 18.7292 14.0015 19.4902 13.0586 19.78C12.2395 20.0319 11.336 19.6985 10.7645 19.0599C10.0667 18.2801 10.1371 17.5451 10.1312 17.2247M16.6406 13.343L17.5008 12.4829M10.8266 19.157L10.0098 19.9739" stroke="white" stroke-width="2" stroke-linecap="round" stroke-linejoin="round"/>
</svg>
