<svg width="36" height="36" viewBox="0 0 36 36" fill="none" xmlns="http://www.w3.org/2000/svg">
<g clip-path="url(#clip0_84_434)">
<mask id="mask0_84_434" style="mask-type:luminance" maskUnits="userSpaceOnUse" x="0" y="0" width="36" height="36">
<path d="M36 0.297119H0V35.9894H36V0.297119Z" fill="white"/>
</mask>
<g mask="url(#mask0_84_434)">
<path d="M23.7099 1.33465C25.6751 2.56521 22.4749 3.34939 22.0976 3.43385C17.6136 4.46536 10.7811 3.36145 11.7972 1.775C11.9675 1.50958 12.5273 1.01495 14.4073 0.653018C14.7602 0.586664 15.2408 0.508245 15.5937 0.453956C16.2142 0.381568 16.2142 0.381568 16.5185 0.357442C17.0721 0.321248 17.0721 0.321248 17.3459 0.309184C17.8752 0.297119 17.8752 0.297119 18.1369 0.297119C18.6601 0.309184 18.6601 0.309184 18.9156 0.321248C19.4449 0.351408 19.4571 0.357442 19.7309 0.381568C20.2967 0.441891 20.3211 0.447922 20.6253 0.49015C21.2763 0.592695 21.3006 0.598728 21.6535 0.671113L22.0368 0.755562C22.5479 0.876208 23.1259 1.02098 23.7099 1.33465C21.9455 0.864144 20.029 0.737467 18.0273 1.00288C20.029 0.737467 21.9455 0.870174 23.7099 1.33465Z" fill="black"/>
<path d="M23.7099 1.33465C25.6751 2.56521 22.4749 3.34939 22.0976 3.43385C17.6136 4.46536 10.7811 3.36145 11.7972 1.775C11.9675 1.50958 12.5273 1.01495 14.4073 0.653018C14.7602 0.586664 15.2408 0.508245 15.5937 0.453956C16.2142 0.381568 16.2142 0.381568 16.5185 0.357442C17.0721 0.321248 17.0721 0.321248 17.3459 0.309184C17.8752 0.297119 17.8752 0.297119 18.1369 0.297119C18.6601 0.309184 18.6601 0.309184 18.9156 0.321248C19.4449 0.351408 19.4571 0.357442 19.7309 0.381568C20.2967 0.441891 20.3211 0.447922 20.6253 0.49015C21.2763 0.592695 21.3006 0.598728 21.6535 0.671113L22.0368 0.755562C22.5479 0.876208 23.1259 1.02098 23.7099 1.33465C21.9455 0.864144 20.029 0.737467 18.0273 1.00288C20.029 0.737467 21.9455 0.870174 23.7099 1.33465Z" fill="black" fill-opacity="0.2"/>
<path d="M26.8738 2.61939C26.387 2.34191 25.876 2.10063 25.3527 1.88347C25.1702 1.78695 24.9208 1.67234 24.7261 1.58789C25.9368 2.11269 26.0341 2.16095 26.8738 2.61939Z" fill="black"/>
<path d="M26.8738 2.61939C26.387 2.34191 25.876 2.10063 25.3527 1.88347C25.1702 1.78695 24.9208 1.67234 24.7261 1.58789C25.9368 2.11269 26.0341 2.16095 26.8738 2.61939Z" fill="black" fill-opacity="0.2"/>
<path d="M26.8737 2.61931C28.0601 3.34318 28.8449 3.8197 30.2078 5.03216L30.6398 5.43632C32.3373 7.08915 29.575 8.88069 23.7951 9.64678C17.2911 10.5154 9.43645 9.76139 6.24837 7.96379C4.76383 7.12533 4.55087 6.20844 5.40873 5.38204L5.84073 4.97789C7.00278 3.98859 7.18533 3.83779 8.26222 3.12601C9.0775 2.6374 9.91711 2.13673 11.1704 1.61797L11.3591 1.53955C8.33522 2.81837 10.6959 3.88607 11.4929 4.18164C16.6584 6.09986 27.4334 4.86327 26.0888 2.5047C25.9185 2.20912 25.596 2.01006 25.3526 1.86529C25.882 2.10054 26.387 2.34786 26.8737 2.61931Z" fill="black"/>
<path d="M26.8737 2.61931C28.0601 3.34318 28.8449 3.8197 30.2078 5.03216L30.6398 5.43632C32.3373 7.08915 29.575 8.88069 23.7951 9.64678C17.2911 10.5154 9.43645 9.76139 6.24837 7.96379C4.76383 7.12533 4.55087 6.20844 5.40873 5.38204L5.84073 4.97789C7.00278 3.98859 7.18533 3.83779 8.26222 3.12601C9.0775 2.6374 9.91711 2.13673 11.1704 1.61797L11.3591 1.53955C8.33522 2.81837 10.6959 3.88607 11.4929 4.18164C16.6584 6.09986 27.4334 4.86327 26.0888 2.5047C25.9185 2.20912 25.596 2.01006 25.3526 1.86529C25.882 2.10054 26.387 2.34786 26.8737 2.61931Z" fill="black" fill-opacity="0.2"/>
<path d="M32.2157 7.20411C33.2438 8.62165 33.3047 8.70611 33.8217 9.6411C34.6249 11.2577 34.6615 11.318 35.0081 12.3073L35.1602 12.7597C35.7688 14.6538 32.1607 16.5419 25.5839 17.4165C17.0478 18.5566 6.72902 17.5673 2.54312 15.2088C1.10726 14.4005 0.577936 13.5379 0.851726 12.6994L1.00383 12.247C1.67309 10.5701 1.69742 10.5037 2.20241 9.58076C3.12111 8.05463 3.15763 7.99433 3.82081 7.1498L3.97899 6.95679C3.2854 7.80731 3.60177 8.7242 5.10455 9.5687C8.60294 11.5412 17.2181 12.3676 24.3548 11.4145C30.4451 10.6002 33.4812 8.76039 32.0695 7.01106L32.2157 7.20411Z" fill="black"/>
<path d="M32.2157 7.20411C33.2438 8.62165 33.3047 8.70611 33.8217 9.6411C34.6249 11.2577 34.6615 11.318 35.0081 12.3073L35.1602 12.7597C35.7688 14.6538 32.1607 16.5419 25.5839 17.4165C17.0478 18.5566 6.72902 17.5673 2.54312 15.2088C1.10726 14.4005 0.577936 13.5379 0.851726 12.6994L1.00383 12.247C1.67309 10.5701 1.69742 10.5037 2.20241 9.58076C3.12111 8.05463 3.15763 7.99433 3.82081 7.1498L3.97899 6.95679C3.2854 7.80731 3.60177 8.7242 5.10455 9.5687C8.60294 11.5412 17.2181 12.3676 24.3548 11.4145C30.4451 10.6002 33.4812 8.76039 32.0695 7.01106L32.2157 7.20411Z" fill="black" fill-opacity="0.2"/>
<path d="M35.7505 15.1604C35.9879 17.0243 36 17.0967 36 18.1704C35.9209 20.0585 35.915 20.1731 35.708 21.3614L35.6713 21.5424C35.3368 23.2495 31.7532 24.848 25.7847 25.6443C17.0053 26.8145 6.40663 25.7951 2.09904 23.3762C1.01606 22.7669 0.431975 22.1215 0.310292 21.4881C0.0486732 19.7207 0.0182525 19.4915 0 18.1161C0.0790942 16.1919 0.0851782 16.1496 0.261619 15.1061L0.328543 14.7441C0.170357 15.5464 0.736184 16.3728 2.11729 17.151C6.4188 19.5759 17.0235 20.5893 25.8029 19.4191C32.3677 18.5444 36.0487 16.6925 35.6897 14.7984L35.7505 15.1604Z" fill="black"/>
<path d="M35.7505 15.1604C35.9879 17.0243 36 17.0967 36 18.1704C35.9209 20.0585 35.915 20.1731 35.708 21.3614L35.6713 21.5424C35.3368 23.2495 31.7532 24.848 25.7847 25.6443C17.0053 26.8145 6.40663 25.7951 2.09904 23.3762C1.01606 22.7669 0.431975 22.1215 0.310292 21.4881C0.0486732 19.7207 0.0182525 19.4915 0 18.1161C0.0790942 16.1919 0.0851782 16.1496 0.261619 15.1061L0.328543 14.7441C0.170357 15.5464 0.736184 16.3728 2.11729 17.151C6.4188 19.5759 17.0235 20.5893 25.8029 19.4191C32.3677 18.5444 36.0487 16.6925 35.6897 14.7984L35.7505 15.1604Z" fill="black" fill-opacity="0.2"/>
<path d="M34.9291 24.2086C34.2416 25.8795 34.2174 25.9458 33.7063 26.8627C32.7694 28.3768 32.7328 28.4371 32.0636 29.2816L32.0208 29.3299C31.1022 30.4579 28.3887 31.4651 24.3123 32.0082C17.1816 32.9611 8.56039 32.1347 5.06199 30.1623C4.55092 29.8728 4.17977 29.5772 3.93643 29.2816C3.54704 28.7568 3.02988 28.0511 2.67092 27.5021C1.78262 25.9398 1.74612 25.8795 1.33848 24.9083C1.18638 24.4981 0.967348 23.9492 0.833496 23.533C1.01602 24.1 1.56968 24.661 2.53098 25.2039C6.71688 27.5624 17.0295 28.5517 25.5717 27.4116C31.1813 26.6637 34.6249 25.1858 35.142 23.5873L34.9291 24.2086Z" fill="black"/>
<path d="M34.9291 24.2086C34.2416 25.8795 34.2174 25.9458 33.7063 26.8627C32.7694 28.3768 32.7328 28.4371 32.0636 29.2816L32.0208 29.3299C31.1022 30.4579 28.3887 31.4651 24.3123 32.0082C17.1816 32.9611 8.56039 32.1347 5.06199 30.1623C4.55092 29.8728 4.17977 29.5772 3.93643 29.2816C3.54704 28.7568 3.02988 28.0511 2.67092 27.5021C1.78262 25.9398 1.74612 25.8795 1.33848 24.9083C1.18638 24.4981 0.967348 23.9492 0.833496 23.533C1.01602 24.1 1.56968 24.661 2.53098 25.2039C6.71688 27.5624 17.0295 28.5517 25.5717 27.4116C31.1813 26.6637 34.6249 25.1858 35.142 23.5873L34.9291 24.2086Z" fill="black" fill-opacity="0.2"/>
<path d="M30.0193 31.4231C28.8511 32.3945 28.6686 32.5452 27.5734 33.2569C26.7277 33.7517 25.9307 34.216 24.6834 34.7166C23.9168 35.0181 22.8643 35.2775 21.5684 35.4465C17.8996 35.9351 13.5312 35.5975 11.2739 34.6926C10.118 34.192 9.97191 34.1255 9.12622 33.6609C7.89723 32.9132 7.64169 32.7563 6.55871 31.9117C6.19973 31.592 5.71302 31.1757 5.36621 30.844C5.57917 31.0492 5.85904 31.2483 6.20582 31.4474C9.39393 33.2449 17.2486 33.9988 23.7526 33.1301C27.2205 32.6658 29.6055 31.8394 30.5912 30.8923L30.0193 31.4231Z" fill="black"/>
<path d="M30.0193 31.4231C28.8511 32.3945 28.6686 32.5452 27.5734 33.2569C26.7277 33.7517 25.9307 34.216 24.6834 34.7166C23.9168 35.0181 22.8643 35.2775 21.5684 35.4465C17.8996 35.9351 13.5312 35.5975 11.2739 34.6926C10.118 34.192 9.97191 34.1255 9.12622 33.6609C7.89723 32.9132 7.64169 32.7563 6.55871 31.9117C6.19973 31.592 5.71302 31.1757 5.36621 30.844C5.57917 31.0492 5.85904 31.2483 6.20582 31.4474C9.39393 33.2449 17.2486 33.9988 23.7526 33.1301C27.2205 32.6658 29.6055 31.8394 30.5912 30.8923L30.0193 31.4231Z" fill="black" fill-opacity="0.2"/>
<path d="M20.4002 35.8325C19.7796 35.9049 19.7796 35.9049 19.4754 35.9289C18.9217 35.9652 18.9217 35.9652 18.6479 35.9772C18.1247 35.9895 18.1247 35.9895 17.8631 35.9895C17.3398 35.9772 17.3398 35.9772 17.0843 35.9652C16.555 35.935 16.5428 35.9289 16.269 35.9049C15.691 35.8445 15.6789 35.8384 15.3746 35.7962C14.7237 35.6938 14.6993 35.6876 14.3464 35.6153L13.9631 35.531C16.336 36.0255 19.1955 36.0618 21.617 35.6215C20.8322 35.7722 20.753 35.7842 20.4002 35.8325Z" fill="black"/>
<path d="M20.4002 35.8325C19.7796 35.9049 19.7796 35.9049 19.4754 35.9289C18.9217 35.9652 18.9217 35.9652 18.6479 35.9772C18.1247 35.9895 18.1247 35.9895 17.8631 35.9895C17.3398 35.9772 17.3398 35.9772 17.0843 35.9652C16.555 35.935 16.5428 35.9289 16.269 35.9049C15.691 35.8445 15.6789 35.8384 15.3746 35.7962C14.7237 35.6938 14.6993 35.6876 14.3464 35.6153L13.9631 35.531C16.336 36.0255 19.1955 36.0618 21.617 35.6215C20.8322 35.7722 20.753 35.7842 20.4002 35.8325Z" fill="black" fill-opacity="0.2"/>
</g>
</g>
<defs>
<clipPath id="clip0_84_434">
<rect width="36" height="36" fill="white"/>
</clipPath>
</defs>
</svg>