<svg width="154" height="22" viewBox="0 0 154 22" fill="none" xmlns="http://www.w3.org/2000/svg">
<mask id="path-1-outside-1_3559_948" maskUnits="userSpaceOnUse" x="-1" y="-1" width="156" height="24" fill="black">
<rect fill="white" x="-1" y="-1" width="156" height="24"/>
<path d="M8.44 21H0.7V0.809999H8.5C13.54 0.809999 16.57 2.91 16.57 6.36C16.57 8.67 15.34 10.23 13.42 10.95C15.43 11.52 16.78 12.81 16.78 15.36C16.78 19.32 13.27 21 8.44 21ZM5.08 4.41V9.21H8.71C11.11 9.21 12.19 8.37 12.19 6.72C12.19 5.22 10.99 4.41 8.74 4.41H5.08ZM5.08 12.81V17.4H8.68C10.81 17.4 12.4 16.92 12.4 15.06C12.4 13.35 11.17 12.81 8.71 12.81H5.08ZM17.8527 21L23.1927 3.66C23.8827 1.47 25.6827 0.419999 27.5727 0.419999C29.4927 0.419999 31.2927 1.47 31.9827 3.66L37.3227 21H32.8527L31.6827 16.86L23.4927 16.89L22.3227 21H17.8527ZM26.9427 4.95L24.6327 12.96H30.5427L28.2627 4.95C28.1427 4.53 27.9627 4.35 27.6027 4.35C27.2727 4.35 27.0627 4.53 26.9427 4.95ZM43.9593 0.809999V16.95H53.3793V21H43.4493C40.6593 21 39.5793 19.56 39.5793 17.25V0.809999H43.9593ZM59.5464 0.809999V16.95H68.9664V21H59.0364C56.2464 21 55.1664 19.56 55.1664 17.25V0.809999H59.5464ZM69.0086 21L74.3486 3.66C75.0386 1.47 76.8386 0.419999 78.7286 0.419999C80.6486 0.419999 82.4486 1.47 83.1386 3.66L88.4786 21H84.0086L82.8386 16.86L74.6486 16.89L73.4786 21H69.0086ZM78.0986 4.95L75.7886 12.96H81.6986L79.4186 4.95C79.2986 4.53 79.1186 4.35 78.7586 4.35C78.4286 4.35 78.2186 4.53 78.0986 4.95ZM93.8852 21H89.4452L92.1752 3.63C92.5352 1.53 94.0052 0.419999 96.0452 0.419999C97.8452 0.419999 99.3752 1.2 99.8552 3.15L103.245 15.75C103.245 15.84 103.275 15.84 103.275 15.84C103.305 15.84 103.335 15.84 103.335 15.75L106.665 3.24C107.175 1.29 108.735 0.419999 110.565 0.419999C112.575 0.419999 114.015 1.56 114.315 3.72L116.805 21H112.365L110.415 5.16C110.415 5.01 110.385 4.92 110.265 4.92C110.175 4.92 110.115 4.98 110.085 5.1L106.335 18.48C105.915 20.01 104.715 20.76 103.275 20.76C101.895 20.76 100.605 20.04 100.245 18.57L96.4952 5.1C96.4652 4.95 96.4052 4.92 96.3452 4.92C96.2552 4.92 96.1652 4.98 96.1652 5.13L93.8852 21ZM117.761 21L123.101 3.66C123.791 1.47 125.591 0.419999 127.481 0.419999C129.401 0.419999 131.201 1.47 131.891 3.66L137.231 21H132.761L131.591 16.86L123.401 16.89L122.231 21H117.761ZM126.851 4.95L124.541 12.96H130.451L128.171 4.95C128.051 4.53 127.871 4.35 127.511 4.35C127.181 4.35 126.971 4.53 126.851 4.95ZM145.968 21.39C142.338 21.39 139.428 19.86 138.138 16.98L141.798 15.15C142.458 16.62 143.868 17.37 145.968 17.37C147.858 17.37 149.298 16.59 149.298 15.15C149.298 13.47 147.708 13.2 145.608 12.84C142.578 12.33 138.468 11.25 138.468 6.69C138.468 3.15 141.648 0.449998 145.818 0.449998C149.148 0.449998 152.028 1.98 153.318 4.86L149.658 6.69C148.998 5.4 147.678 4.5 145.638 4.5C143.988 4.5 142.848 5.28 142.848 6.51C142.848 8.13 144.528 8.55 146.718 8.94C149.718 9.45 153.678 10.53 153.678 15.12C153.678 18.75 150.258 21.39 145.968 21.39Z"/>
</mask>
<path d="M0.7 21H-0.3V22H0.7V21ZM0.7 0.809999V-0.190001H-0.3V0.809999H0.7ZM13.42 10.95L13.0689 10.0137L10.22 11.082L13.1472 11.9121L13.42 10.95ZM5.08 4.41V3.41H4.08V4.41H5.08ZM5.08 9.21H4.08V10.21H5.08V9.21ZM5.08 12.81V11.81H4.08V12.81H5.08ZM5.08 17.4H4.08V18.4H5.08V17.4ZM8.44 20H0.7V22H8.44V20ZM1.7 21V0.809999H-0.3V21H1.7ZM0.7 1.81H8.5V-0.190001H0.7V1.81ZM8.5 1.81C10.8997 1.81 12.6939 2.31266 13.8575 3.11464C14.9807 3.88872 15.57 4.97169 15.57 6.36H17.57C17.57 4.29831 16.6443 2.60627 14.9925 1.46786C13.3811 0.357337 11.1403 -0.190001 8.5 -0.190001V1.81ZM15.57 6.36C15.57 7.33121 15.314 8.09044 14.9005 8.67114C14.4848 9.25476 13.8705 9.71305 13.0689 10.0137L13.7711 11.8863C14.8895 11.467 15.8502 10.7852 16.5295 9.83136C17.211 8.87456 17.57 7.69879 17.57 6.36H15.57ZM13.1472 11.9121C14.0236 12.1606 14.6613 12.5393 15.0829 13.0495C15.4955 13.5489 15.78 14.2694 15.78 15.36H17.78C17.78 13.9006 17.3895 12.7011 16.6246 11.7755C15.8687 10.8607 14.8264 10.3094 13.6928 9.98794L13.1472 11.9121ZM15.78 15.36C15.78 16.9834 15.0906 18.0761 13.8957 18.8142C12.6379 19.5912 10.7654 20 8.44 20V22C10.9446 22 13.2421 21.5688 14.9468 20.5158C16.7144 19.4239 17.78 17.6966 17.78 15.36H15.78ZM4.08 4.41V9.21H6.08V4.41H4.08ZM5.08 10.21H8.71V8.21H5.08V10.21ZM8.71 10.21C9.99359 10.21 11.1179 9.99153 11.9398 9.39133C12.8251 8.7448 13.19 7.78563 13.19 6.72H11.19C11.19 7.30437 11.0149 7.5902 10.7603 7.77616C10.4421 8.00847 9.82641 8.21 8.71 8.21V10.21ZM13.19 6.72C13.19 5.65901 12.742 4.7599 11.8659 4.1721C11.0502 3.62478 9.95848 3.41 8.74 3.41V5.41C9.77152 5.41 10.4048 5.60022 10.7516 5.8329C11.038 6.02509 11.19 6.28099 11.19 6.72H13.19ZM8.74 3.41H5.08V5.41H8.74V3.41ZM4.08 12.81V17.4H6.08V12.81H4.08ZM5.08 18.4H8.68V16.4H5.08V18.4ZM8.68 18.4C9.78023 18.4 10.9178 18.2833 11.8078 17.8107C12.2728 17.5637 12.6865 17.2112 12.9777 16.7215C13.2683 16.233 13.4 15.6703 13.4 15.06H11.4C11.4 15.3797 11.3329 15.5745 11.2588 15.6991C11.1854 15.8226 11.0685 15.9388 10.8697 16.0443C10.4322 16.2767 9.70977 16.4 8.68 16.4V18.4ZM13.4 15.06C13.4 14.5146 13.3019 13.9901 13.0536 13.52C12.8008 13.0413 12.4249 12.6814 11.9708 12.4239C11.1146 11.9383 9.96451 11.81 8.71 11.81V13.81C9.91549 13.81 10.6104 13.9517 10.9842 14.1636C11.1451 14.2549 11.2305 14.3506 11.2851 14.4541C11.3443 14.5662 11.4 14.7504 11.4 15.06H13.4ZM8.71 11.81H5.08V13.81H8.71V11.81ZM17.8527 21L16.897 20.7057L16.4984 22H17.8527V21ZM23.1927 3.66L22.2389 3.35949L22.237 3.36568L23.1927 3.66ZM31.9827 3.66L32.9385 3.36567L32.9365 3.35949L31.9827 3.66ZM37.3227 21V22H38.677L38.2784 20.7057L37.3227 21ZM32.8527 21L31.8904 21.272L32.0962 22H32.8527V21ZM31.6827 16.86L32.645 16.588L32.4385 15.8572L31.6791 15.86L31.6827 16.86ZM23.4927 16.89L23.4891 15.89L22.7369 15.8928L22.5309 16.6162L23.4927 16.89ZM22.3227 21V22H23.0778L23.2845 21.2738L22.3227 21ZM26.9427 4.95L27.9036 5.2271L27.9043 5.22472L26.9427 4.95ZM24.6327 12.96L23.6719 12.6829L23.3036 13.96H24.6327V12.96ZM30.5427 12.96V13.96H31.8671L31.5045 12.6862L30.5427 12.96ZM28.2627 4.95L29.2245 4.67623L29.2243 4.67528L28.2627 4.95ZM18.8084 21.2943L24.1484 3.95432L22.237 3.36568L16.897 20.7057L18.8084 21.2943ZM24.1465 3.96051C24.6927 2.22709 26.0755 1.42 27.5727 1.42V-0.580001C25.2899 -0.580001 23.0728 0.712905 22.239 3.35949L24.1465 3.96051ZM27.5727 1.42C29.1038 1.42 30.4839 2.23053 31.029 3.96051L32.9365 3.35949C32.1016 0.709464 29.8817 -0.580001 27.5727 -0.580001V1.42ZM31.027 3.95432L36.367 21.2943L38.2784 20.7057L32.9384 3.36568L31.027 3.95432ZM37.3227 20H32.8527V22H37.3227V20ZM33.815 20.728L32.645 16.588L30.7204 17.132L31.8904 21.272L33.815 20.728ZM31.6791 15.86L23.4891 15.89L23.4964 17.89L31.6864 17.86L31.6791 15.86ZM22.5309 16.6162L21.3609 20.7262L23.2845 21.2738L24.4545 17.1638L22.5309 16.6162ZM22.3227 20H17.8527V22H22.3227V20ZM25.9819 4.6729L23.6719 12.6829L25.5936 13.2371L27.9036 5.2271L25.9819 4.6729ZM24.6327 13.96H30.5427V11.96H24.6327V13.96ZM31.5045 12.6862L29.2245 4.67623L27.3009 5.22377L29.5809 13.2338L31.5045 12.6862ZM29.2243 4.67528C29.145 4.39792 29.0055 4.0404 28.7032 3.75971C28.3656 3.44621 27.9616 3.35 27.6027 3.35V5.35C27.6109 5.35 27.5774 5.3512 27.5208 5.33208C27.4586 5.31106 27.3952 5.27443 27.3423 5.22529C27.2932 5.17972 27.2733 5.14216 27.2719 5.13938C27.2715 5.13869 27.2832 5.16184 27.3012 5.22472L29.2243 4.67528ZM27.6027 3.35C27.2411 3.35 26.8526 3.45553 26.5264 3.74793C26.2246 4.01857 26.0692 4.36718 25.9812 4.67528L27.9043 5.22472C27.9362 5.11282 27.9459 5.16143 27.8615 5.23707C27.8161 5.27775 27.7608 5.3102 27.7033 5.33006C27.6488 5.34883 27.611 5.35 27.6027 5.35V3.35ZM43.9593 0.809999H44.9593V-0.190001H43.9593V0.809999ZM43.9593 16.95H42.9593V17.95H43.9593V16.95ZM53.3793 16.95H54.3793V15.95H53.3793V16.95ZM53.3793 21V22H54.3793V21H53.3793ZM39.5793 0.809999V-0.190001H38.5793V0.809999H39.5793ZM42.9593 0.809999V16.95H44.9593V0.809999H42.9593ZM43.9593 17.95H53.3793V15.95H43.9593V17.95ZM52.3793 16.95V21H54.3793V16.95H52.3793ZM53.3793 20H43.4493V22H53.3793V20ZM43.4493 20C42.2165 20 41.5567 19.6838 41.1917 19.3011C40.8182 18.9095 40.5793 18.2669 40.5793 17.25H38.5793C38.5793 18.5431 38.8804 19.7755 39.7444 20.6814C40.6169 21.5962 41.8921 22 43.4493 22V20ZM40.5793 17.25V0.809999H38.5793V17.25H40.5793ZM39.5793 1.81H43.9593V-0.190001H39.5793V1.81ZM59.5464 0.809999H60.5464V-0.190001H59.5464V0.809999ZM59.5464 16.95H58.5464V17.95H59.5464V16.95ZM68.9664 16.95H69.9664V15.95H68.9664V16.95ZM68.9664 21V22H69.9664V21H68.9664ZM55.1664 0.809999V-0.190001H54.1664V0.809999H55.1664ZM58.5464 0.809999V16.95H60.5464V0.809999H58.5464ZM59.5464 17.95H68.9664V15.95H59.5464V17.95ZM67.9664 16.95V21H69.9664V16.95H67.9664ZM68.9664 20H59.0364V22H68.9664V20ZM59.0364 20C57.8036 20 57.1438 19.6838 56.7788 19.3011C56.4053 18.9095 56.1664 18.2669 56.1664 17.25H54.1664C54.1664 18.5431 54.4675 19.7755 55.3315 20.6814C56.204 21.5962 57.4792 22 59.0364 22V20ZM56.1664 17.25V0.809999H54.1664V17.25H56.1664ZM55.1664 1.81H59.5464V-0.190001H55.1664V1.81ZM69.0086 21L68.0529 20.7057L67.6543 22H69.0086V21ZM74.3486 3.66L73.3948 3.35949L73.3929 3.36568L74.3486 3.66ZM83.1386 3.66L84.0943 3.36567L84.0924 3.35949L83.1386 3.66ZM88.4786 21V22H89.8329L89.4343 20.7057L88.4786 21ZM84.0086 21L83.0463 21.272L83.252 22H84.0086V21ZM82.8386 16.86L83.8009 16.588L83.5944 15.8572L82.8349 15.86L82.8386 16.86ZM74.6486 16.89L74.6449 15.89L73.8927 15.8928L73.6868 16.6162L74.6486 16.89ZM73.4786 21V22H74.2337L74.4404 21.2738L73.4786 21ZM78.0986 4.95L79.0594 5.2271L79.0601 5.22472L78.0986 4.95ZM75.7886 12.96L74.8278 12.6829L74.4594 13.96H75.7886V12.96ZM81.6986 12.96V13.96H83.023L82.6604 12.6862L81.6986 12.96ZM79.4186 4.95L80.3804 4.67623L80.3801 4.67528L79.4186 4.95ZM69.9643 21.2943L75.3043 3.95432L73.3929 3.36568L68.0529 20.7057L69.9643 21.2943ZM75.3024 3.96051C75.8485 2.22709 77.2314 1.42 78.7286 1.42V-0.580001C76.4458 -0.580001 74.2287 0.712905 73.3948 3.35949L75.3024 3.96051ZM78.7286 1.42C80.2597 1.42 81.6398 2.23053 82.1848 3.96051L84.0924 3.35949C83.2574 0.709464 81.0375 -0.580001 78.7286 -0.580001V1.42ZM82.1829 3.95432L87.5229 21.2943L89.4343 20.7057L84.0943 3.36568L82.1829 3.95432ZM88.4786 20H84.0086V22H88.4786V20ZM84.9709 20.728L83.8009 16.588L81.8763 17.132L83.0463 21.272L84.9709 20.728ZM82.8349 15.86L74.6449 15.89L74.6523 17.89L82.8423 17.86L82.8349 15.86ZM73.6868 16.6162L72.5168 20.7262L74.4404 21.2738L75.6104 17.1638L73.6868 16.6162ZM73.4786 20H69.0086V22H73.4786V20ZM77.1377 4.6729L74.8278 12.6829L76.7494 13.2371L79.0594 5.2271L77.1377 4.6729ZM75.7886 13.96H81.6986V11.96H75.7886V13.96ZM82.6604 12.6862L80.3804 4.67623L78.4568 5.22377L80.7368 13.2338L82.6604 12.6862ZM80.3801 4.67528C80.3009 4.39792 80.1613 4.0404 79.859 3.75971C79.5214 3.44621 79.1174 3.35 78.7586 3.35V5.35C78.7668 5.35 78.7332 5.3512 78.6767 5.33208C78.6144 5.31106 78.5511 5.27443 78.4981 5.22529C78.4491 5.17972 78.4292 5.14216 78.4277 5.13938C78.4274 5.13869 78.4391 5.16184 78.4571 5.22472L80.3801 4.67528ZM78.7586 3.35C78.3969 3.35 78.0084 3.45553 77.6823 3.74793C77.3804 4.01857 77.2251 4.36718 77.1371 4.67528L79.0601 5.22472C79.0921 5.11282 79.1018 5.16143 79.0174 5.23707C78.972 5.27775 78.9167 5.3102 78.8591 5.33006C78.8047 5.34883 78.7668 5.35 78.7586 5.35V3.35ZM93.8852 21V22H94.7518L94.875 21.1422L93.8852 21ZM89.4452 21L88.4573 20.8447L88.2757 22H89.4452V21ZM92.1752 3.63L91.1894 3.46102L91.1873 3.47474L92.1752 3.63ZM99.8552 3.15L98.8841 3.38902L98.8867 3.39944L98.8895 3.40981L99.8552 3.15ZM103.245 15.75H104.245V15.6178L104.211 15.4902L103.245 15.75ZM103.335 15.75L102.369 15.4928L102.335 15.6192V15.75H103.335ZM106.665 3.24L107.632 3.49723L107.633 3.49303L106.665 3.24ZM114.315 3.72L113.325 3.85757L113.325 3.86262L114.315 3.72ZM116.805 21V22H117.96L117.795 20.8574L116.805 21ZM112.365 21L111.373 21.1222L111.481 22H112.365V21ZM110.415 5.16H109.415V5.22132L109.423 5.28218L110.415 5.16ZM110.085 5.1L111.048 5.36987L111.052 5.35626L111.055 5.34254L110.085 5.1ZM106.335 18.48L105.372 18.2101L105.371 18.2153L106.335 18.48ZM100.245 18.57L101.216 18.3321L101.213 18.3169L101.209 18.3018L100.245 18.57ZM96.4952 5.1L95.5146 5.29611L95.5219 5.33247L95.5318 5.3682L96.4952 5.1ZM96.1652 5.13L97.155 5.27221L97.1652 5.20147V5.13H96.1652ZM93.8852 20H89.4452V22H93.8852V20ZM90.433 21.1553L93.163 3.78526L91.1873 3.47474L88.4573 20.8447L90.433 21.1553ZM93.1608 3.79896C93.3062 2.95048 93.6583 2.37961 94.1091 2.01495C94.5649 1.64622 95.2066 1.42 96.0452 1.42V-0.580001C94.8437 -0.580001 93.7304 -0.251227 92.8512 0.46005C91.967 1.17539 91.4041 2.20951 91.1895 3.46103L93.1608 3.79896ZM96.0452 1.42C96.809 1.42 97.4347 1.58624 97.8959 1.88939C98.3378 2.17988 98.7001 2.64127 98.8841 3.38902L100.826 2.91098C100.53 1.70873 99.8875 0.805114 98.9944 0.218105C98.1206 -0.356242 97.0814 -0.580001 96.0452 -0.580001V1.42ZM98.8895 3.40981L102.279 16.0098L104.211 15.4902L100.821 2.89019L98.8895 3.40981ZM102.245 15.75C102.245 15.8745 102.26 16.1315 102.428 16.3834C102.521 16.5227 102.653 16.648 102.823 16.733C102.905 16.7739 102.987 16.801 103.064 16.8176C103.103 16.8259 103.14 16.8315 103.175 16.835C103.193 16.8368 103.21 16.838 103.227 16.8388C103.235 16.8392 103.243 16.8395 103.251 16.8397C103.255 16.8398 103.259 16.8399 103.263 16.8399C103.265 16.84 103.267 16.84 103.269 16.84C103.27 16.84 103.272 16.84 103.272 16.84C103.274 16.84 103.275 16.84 103.275 15.84C103.275 14.84 103.277 14.84 103.278 14.84C103.279 14.84 103.28 14.84 103.281 14.84C103.283 14.84 103.285 14.84 103.287 14.8401C103.291 14.8401 103.295 14.8402 103.299 14.8403C103.307 14.8405 103.315 14.8408 103.323 14.8412C103.34 14.842 103.357 14.8432 103.374 14.8449C103.409 14.8484 103.446 14.8539 103.483 14.862C103.559 14.8783 103.639 14.9047 103.718 14.9442C103.882 15.0264 104.007 15.1461 104.092 15.2741C104.245 15.5035 104.245 15.7155 104.245 15.75H102.245ZM103.275 16.84C103.276 16.84 103.284 16.84 103.293 16.8399C103.302 16.8398 103.316 16.8395 103.334 16.8387C103.368 16.8371 103.425 16.8329 103.493 16.8192C103.643 16.7892 103.846 16.7136 104.024 16.5359C104.34 16.2194 104.335 15.8266 104.335 15.75H102.335C102.335 15.725 102.336 15.6499 102.362 15.5511C102.389 15.4486 102.453 15.2783 102.609 15.1216C102.937 14.7942 103.371 14.84 103.275 14.84V16.84ZM104.302 16.0072L107.632 3.49723L105.699 2.98277L102.369 15.4928L104.302 16.0072ZM107.633 3.49303C107.83 2.73884 108.211 2.24458 108.68 1.92728C109.163 1.60103 109.804 1.42 110.565 1.42V-0.580001C109.497 -0.580001 108.442 -0.326032 107.56 0.270217C106.665 0.87542 106.01 1.79116 105.698 2.98697L107.633 3.49303ZM110.565 1.42C111.38 1.42 111.997 1.64848 112.431 2.01988C112.863 2.38884 113.202 2.97476 113.325 3.85757L115.306 3.58243C115.128 2.30524 114.598 1.24116 113.731 0.500123C112.868 -0.238478 111.76 -0.580001 110.565 -0.580001V1.42ZM113.325 3.86262L115.815 21.1426L117.795 20.8574L115.305 3.57737L113.325 3.86262ZM116.805 20H112.365V22H116.805V20ZM113.358 20.8778L111.408 5.03782L109.423 5.28218L111.373 21.1222L113.358 20.8778ZM111.415 5.16C111.415 5.0674 111.415 4.78418 111.263 4.5049C111.172 4.33887 111.028 4.17371 110.82 4.05931C110.618 3.94903 110.419 3.92 110.265 3.92V5.92C110.171 5.92 110.021 5.90221 109.859 5.8135C109.689 5.72067 109.575 5.58738 109.507 5.4626C109.446 5.34986 109.427 5.25489 109.421 5.21598C109.414 5.1746 109.415 5.15131 109.415 5.16H111.415ZM110.265 3.92C109.973 3.92 109.675 4.02809 109.446 4.25789C109.242 4.46176 109.155 4.69721 109.115 4.85745L111.055 5.34254C111.045 5.38279 111.004 5.52824 110.86 5.67211C110.69 5.8419 110.468 5.92 110.265 5.92V3.92ZM109.122 4.83013L105.372 18.2101L107.298 18.7499L111.048 5.36987L109.122 4.83013ZM105.371 18.2153C105.217 18.7764 104.938 19.1443 104.608 19.3789C104.271 19.6184 103.822 19.76 103.275 19.76V21.76C104.168 21.76 105.039 21.5266 105.767 21.0086C106.503 20.4857 107.034 19.7136 107.299 18.7447L105.371 18.2153ZM103.275 19.76C102.227 19.76 101.439 19.2409 101.216 18.3321L99.2739 18.8079C99.7713 20.8391 101.563 21.76 103.275 21.76V19.76ZM101.209 18.3018L97.4585 4.8318L95.5318 5.3682L99.2818 18.8382L101.209 18.3018ZM97.4757 4.90388C97.4426 4.73809 97.3636 4.4717 97.1385 4.24664C96.8753 3.98339 96.5611 3.92 96.3452 3.92V5.92C96.1892 5.92 95.9351 5.87161 95.7243 5.66086C95.5517 5.4883 95.5177 5.31191 95.5146 5.29611L97.4757 4.90388ZM96.3452 3.92C96.0821 3.92 95.7665 4.00944 95.5143 4.26164C95.2544 4.5215 95.1652 4.84982 95.1652 5.13H97.1652C97.1652 5.26018 97.1209 5.4835 96.9285 5.67586C96.7438 5.86056 96.5182 5.92 96.3452 5.92V3.92ZM95.1753 4.98779L92.8953 20.8578L94.875 21.1422L97.155 5.27221L95.1753 4.98779ZM117.761 21L116.805 20.7057L116.407 22H117.761V21ZM123.101 3.66L122.147 3.35949L122.145 3.36568L123.101 3.66ZM131.891 3.66L132.847 3.36567L132.845 3.35949L131.891 3.66ZM137.231 21V22H138.585L138.187 20.7057L137.231 21ZM132.761 21L131.799 21.272L132.004 22H132.761V21ZM131.591 16.86L132.553 16.588L132.347 15.8572L131.587 15.86L131.591 16.86ZM123.401 16.89L123.397 15.89L122.645 15.8928L122.439 16.6162L123.401 16.89ZM122.231 21V22H122.986L123.193 21.2738L122.231 21ZM126.851 4.95L127.812 5.2271L127.812 5.22472L126.851 4.95ZM124.541 12.96L123.58 12.6829L123.212 13.96H124.541V12.96ZM130.451 12.96V13.96H131.775L131.413 12.6862L130.451 12.96ZM128.171 4.95L129.133 4.67623L129.132 4.67528L128.171 4.95ZM118.717 21.2943L124.057 3.95432L122.145 3.36568L116.805 20.7057L118.717 21.2943ZM124.055 3.96051C124.601 2.22709 125.984 1.42 127.481 1.42V-0.580001C125.198 -0.580001 122.981 0.712905 122.147 3.35949L124.055 3.96051ZM127.481 1.42C129.012 1.42 130.392 2.23053 130.937 3.96051L132.845 3.35949C132.01 0.709464 129.79 -0.580001 127.481 -0.580001V1.42ZM130.935 3.95432L136.275 21.2943L138.187 20.7057L132.847 3.36568L130.935 3.95432ZM137.231 20H132.761V22H137.231V20ZM133.723 20.728L132.553 16.588L130.629 17.132L131.799 21.272L133.723 20.728ZM131.587 15.86L123.397 15.89L123.405 17.89L131.595 17.86L131.587 15.86ZM122.439 16.6162L121.269 20.7262L123.193 21.2738L124.363 17.1638L122.439 16.6162ZM122.231 20H117.761V22H122.231V20ZM125.89 4.6729L123.58 12.6829L125.502 13.2371L127.812 5.2271L125.89 4.6729ZM124.541 13.96H130.451V11.96H124.541V13.96ZM131.413 12.6862L129.133 4.67623L127.209 5.22377L129.489 13.2338L131.413 12.6862ZM129.132 4.67528C129.053 4.39792 128.914 4.0404 128.611 3.75971C128.274 3.44621 127.87 3.35 127.511 3.35V5.35C127.519 5.35 127.486 5.3512 127.429 5.33208C127.367 5.31106 127.303 5.27443 127.25 5.22529C127.201 5.17972 127.182 5.14216 127.18 5.13938C127.18 5.13869 127.191 5.16184 127.209 5.22472L129.132 4.67528ZM127.511 3.35C127.149 3.35 126.761 3.45553 126.435 3.74793C126.133 4.01857 125.977 4.36718 125.889 4.67528L127.812 5.22472C127.844 5.11282 127.854 5.16143 127.77 5.23707C127.724 5.27775 127.669 5.3102 127.611 5.33006C127.557 5.34883 127.519 5.35 127.511 5.35V3.35ZM138.138 16.98L137.69 16.0856L136.833 16.5142L137.225 17.3888L138.138 16.98ZM141.798 15.15L142.71 14.7404L142.283 13.7893L141.35 14.2556L141.798 15.15ZM145.608 12.84L145.776 11.8544L145.773 11.8539L145.608 12.84ZM153.318 4.86L153.765 5.75443L154.622 5.32584L154.23 4.45122L153.318 4.86ZM149.658 6.69L148.767 7.14548L149.219 8.02752L150.105 7.58443L149.658 6.69ZM146.718 8.94L146.542 9.92454L146.55 9.92586L146.718 8.94ZM145.968 20.39C142.615 20.39 140.136 18.9961 139.05 16.5712L137.225 17.3888C138.719 20.7239 142.06 22.39 145.968 22.39V20.39ZM138.585 17.8744L142.245 16.0444L141.35 14.2556L137.69 16.0856L138.585 17.8744ZM140.885 15.5596C141.758 17.5041 143.618 18.37 145.968 18.37V16.37C144.117 16.37 143.157 15.7359 142.71 14.7404L140.885 15.5596ZM145.968 18.37C147.031 18.37 148.068 18.1534 148.874 17.6465C149.716 17.1164 150.298 16.2632 150.298 15.15H148.298C148.298 15.4768 148.159 15.7336 147.809 15.9535C147.422 16.1966 146.794 16.37 145.968 16.37V18.37ZM150.298 15.15C150.298 14.5644 150.156 14.0282 149.843 13.5682C149.535 13.1166 149.114 12.8141 148.679 12.6015C147.861 12.2017 146.772 12.025 145.776 11.8544L145.439 13.8256C146.543 14.015 147.299 14.1533 147.801 14.3985C148.026 14.5084 148.133 14.6109 148.19 14.6936C148.24 14.7681 148.298 14.8956 148.298 15.15H150.298ZM145.773 11.8539C144.27 11.6008 142.663 11.2273 141.442 10.4425C140.292 9.7033 139.467 8.59523 139.467 6.69H137.467C137.467 9.34477 138.698 11.0567 140.361 12.125C141.952 13.1477 143.915 13.5692 145.442 13.8261L145.773 11.8539ZM139.467 6.69C139.467 3.8495 142.04 1.45 145.818 1.45V-0.550002C141.255 -0.550002 137.467 2.45049 137.467 6.69H139.467ZM145.818 1.45C148.845 1.45 151.31 2.8249 152.405 5.26878L154.23 4.45122C152.745 1.1351 149.45 -0.550002 145.818 -0.550002V1.45ZM152.87 3.96557L149.21 5.79557L150.105 7.58443L153.765 5.75443L152.87 3.96557ZM150.548 6.23452C149.7 4.57706 148.014 3.5 145.638 3.5V5.5C147.341 5.5 148.295 6.22294 148.767 7.14548L150.548 6.23452ZM145.638 3.5C144.669 3.5 143.751 3.72727 143.045 4.22834C142.311 4.74901 141.848 5.54496 141.848 6.51H143.848C143.848 6.24504 143.954 6.03599 144.203 5.85916C144.479 5.66273 144.956 5.5 145.638 5.5V3.5ZM141.848 6.51C141.848 7.10013 142.005 7.6351 142.326 8.09259C142.638 8.53768 143.062 8.84881 143.504 9.07582C144.354 9.51185 145.471 9.73382 146.542 9.92451L146.893 7.95549C145.774 7.75618 144.956 7.57315 144.418 7.29668C144.166 7.16744 144.034 7.04544 143.963 6.94397C143.9 6.8549 143.848 6.72987 143.848 6.51H141.848ZM146.55 9.92586C148.036 10.1786 149.593 10.5509 150.769 11.3328C151.873 12.0667 152.678 13.1806 152.678 15.12H154.678C154.678 12.4694 153.502 10.7483 151.876 9.66725C150.322 8.63412 148.399 8.21143 146.885 7.95414L146.55 9.92586ZM152.678 15.12C152.678 18.0016 149.924 20.39 145.968 20.39V22.39C150.591 22.39 154.678 19.4984 154.678 15.12H152.678Z" fill="white" mask="url(#path-1-outside-1_3559_948)"/>
</svg>
